<?xml version="1.0"?>
<svg xmlns="http://www.w3.org/2000/svg" height="512px" viewBox="0 0 496 496" width="512px"><g><path d="m268.746094 381.8125 4.574218-16 15.390626 4.398438-4.574219 16zm0 0" data-original="#000000" class="active-path" data-old_color="#000000" fill="#7431FF"/><path d="m261.320312 407.777344c-2.886718 10.125-8.632812 19.191406-16.59375 26.222656l10.59375 11.992188c10.253907-9.054688 17.648438-20.753907 21.390626-33.824219l2.847656-9.976563-15.390625-4.398437zm0 0" data-original="#000000" class="active-path" data-old_color="#000000" fill="#7431FF"/><path d="m29.957031 248.261719 15.460938-4.109375 4.109375 15.460937-15.460938 4.109375zm0 0" data-original="#000000" class="active-path" data-old_color="#000000" fill="#7431FF"/><path d="m60.882812 240.054688 15.460938-4.113282 4.109375 15.464844-15.460937 4.109375zm0 0" data-original="#000000" class="active-path" data-old_color="#000000" fill="#7431FF"/><path d="m91.820312 231.851562 15.457032-4.109374 4.109375 15.472656-15.457031 4.105468zm0 0" data-original="#000000" class="active-path" data-old_color="#000000" fill="#7431FF"/><path d="m2.339844 482.339844 16-16 11.3125 11.316406-15.996094 15.996094zm0 0" data-original="#000000" class="active-path" data-old_color="#000000" fill="#7431FF"/><path d="m26.339844 458.339844 72-72 11.3125 11.316406-72 71.996094zm0 0" data-original="#000000" class="active-path" data-old_color="#000000" fill="#7431FF"/><path d="m66.339844 466.339844 16-15.996094 11.3125 11.3125-16 15.996094zm0 0" data-original="#000000" class="active-path" data-old_color="#000000" fill="#7431FF"/><path d="m90.339844 442.339844 32.003906-32.003906 11.3125 11.316406-32 32zm0 0" data-original="#000000" class="active-path" data-old_color="#000000" fill="#7431FF"/><path d="m18.339844 418.339844 16-15.996094 11.3125 11.3125-15.996094 15.996094zm0 0" data-original="#000000" class="active-path" data-old_color="#000000" fill="#7431FF"/><path d="m42.34375 394.339844 32-32.003906 11.3125 11.316406-32 32zm0 0" data-original="#000000" class="active-path" data-old_color="#000000" fill="#7431FF"/><path d="m466.152344 240.222656 11.414062-19-38.246094-38.246094c15.304688-27.152343 27.589844-56.015624 36.191407-86.113281l19.640625-68.765625c.558594-1.96875.847656-4.007812.847656-6.066406 0-12.144531-9.878906-22.03125-22.425781-22.03125-1.628907 0-3.269531.183594-4.886719.542969l-64.519531 14.664062c-33.910157 7.703125-66.414063 19.792969-96.855469 35.761719l-32.527344-32.527344-19.007812 11.398438c-6.417969-3.375-13.167969-6.167969-20.152344-8.335938l-5.386719-21.503906h-60.476562l-5.386719 21.511719c-6.984375 2.167969-13.734375 4.960937-20.152344 8.335937l-19.007812-11.398437-42.78125 42.773437 11.414062 19c-3.375 6.410156-6.167968 13.160156-8.335937 20.152344l-21.511719 5.378906v60.492188l21.527344 5.386718c1.335937 4.230469 3.03125 8.445313 4.914062 12.65625l-15.417968 4.398438c-44.175782 12.625-75.023438 53.519531-75.023438 99.472656v9.070313l108.625-13.710938-14.105469 30 7.847657 7.847657-16.101563 32.207031 56.160156 56.160156 32.207031-16.101563 8.160157 8.160157 30.03125-16.882813-13.886719 111.089844h9.0625c45.945312 0 86.847656-30.855469 99.480469-75.03125l4.382812-15.351562c4.160157 1.863281 8.335938 3.535156 12.503907 4.855468l5.394531 21.527344h60.484375l5.386718-21.511719c6.984376-2.167969 13.734376-4.960937 20.152344-8.335937l19.007813 11.398437 42.78125-42.773437-11.414063-19c3.375-6.410156 6.167969-13.160156 8.335938-20.152344l21.503906-5.378906v-60.492188l-21.511719-5.378906c-2.175781-7-4.96875-13.742188-8.335937-20.152344zm-58.441406-209.40625 64.503906-14.664062c.449218-.105469.914062-.152344 1.753906-.152344 3.328125 0 6.03125 2.703125 6.03125 6.03125 0 .570312-.078125 1.121094-.230469 1.65625l-19.648437 68.777344c-.640625 2.230468-1.441406 4.398437-2.121094 6.613281-30.320312-9.980469-53.878906-34.597656-62.433594-65.269531 4.027344-1.054688 8.074219-2.066406 12.144532-2.992188zm-308.0625 132.09375-1.214844-4.542968-18.433594-4.613282v-35.507812l18.433594-4.605469 1.214844-4.542969c2.367187-8.839844 5.847656-17.265625 10.351562-25.035156l2.367188-4.078125-9.773438-16.28125 25.109375-25.101563 16.28125 9.765626 4.078125-2.359376c7.792969-4.503906 16.210938-7.992187 25.027344-10.351562l4.542968-1.214844 4.605469-18.441406h35.515625l4.605469 18.433594 4.542969 1.214844c8.816406 2.359374 17.234375 5.839843 25.027344 10.351562l4.078124 2.359375 16.28125-9.765625 20.429688 20.429688c-9.535156 5.519531-18.871094 11.402343-27.925781 17.710937-16.664063-18.300781-39.832031-28.734375-64.792969-28.734375-48.519531 0-88 39.480469-88 88 0 13.808594 3.257812 27.238281 9.390625 39.441406l-15.285156 4.367188c-2.664063-5.625-4.953125-11.28125-6.457031-16.898438zm78.113281-3.574218-8.136719 2.328124c-6.121094-7.214843-9.625-16.105468-9.625-25.664062 0-22.054688 17.945312-40 40-40 10.191406 0 19.695312 3.847656 27.023438 10.640625-5.582032 4.992187-11.078126 10.101563-16.398438 15.414063-11.777344 11.777343-22.722656 24.242187-32.863281 37.28125zm61.445312-63.160157c-10.414062-10.328125-24.277343-16.175781-39.207031-16.175781-30.871094 0-56 25.121094-56 56 0 10.992188 3.183594 21.425781 9.046875 30.398438l-15.789063 4.511718c-5.960937-10.679687-9.257812-22.582031-9.257812-34.910156 0-39.695312 32.296875-72 72-72 19.816406 0 38.296875 7.992188 51.839844 22.160156-4.28125 3.246094-8.480469 6.59375-12.632813 10.015625zm-222.71875 182.847657c3.71875-35.03125 28.550781-65.128907 62.9375-74.953126l83.160157-23.757812c-11.625 17.152344-21.984376 35.175781-30.867188 54.078125l-15.03125 31.984375zm129.085938 111.242187-39.839844-39.839844 8.5625-17.128906 48.40625 48.40625zm-5.75-54.074219 59.855469-53.199218 13.328124 13.335937-53.199218 59.855469zm31.3125 31.320313 63.855469-71.832031-34.671876-34.664063-71.832031 63.855469-14.703125-14.703125 32.414063-68.960938c18.863281-40.160156 44.34375-76.429687 75.738281-107.824219 44.34375-44.34375 98.613281-76.894531 158.238281-95.191406 10.023438 35.792969 37.527344 64.519532 72.9375 76.128906-18.96875 53.871094-49.898437 103.160157-90.351562 143.609376l-18.425781 18.421874c-24.6875 24.6875-52.65625 45.894532-83.121094 63.007813l-75.703125 42.535156zm260.863281-71.511719c0 39.695312-32.296875 72-72 72-12.273438 0-24.128906-3.273438-34.769531-9.183594l4.503906-15.769531c8.945313 5.792969 19.335937 8.953125 30.265625 8.953125 30.871094 0 56-25.121094 56-56 0-18.519531-9.238281-35.496094-24.097656-45.847656 3.511718-4.007813 6.824218-8.183594 10.167968-12.328125 18.5625 13.472656 29.929688 35.128906 29.929688 58.175781zm-76.34375-8.34375 18.421875-18.425781c2.363281-2.359375 4.539063-4.871094 6.832031-7.277344 11.738282 7.207031 19.089844 20.039063 19.089844 34.046875 0 22.054688-17.945312 40-40 40-9.496094 0-18.34375-3.457031-25.527344-9.503906l7.421875-25.984375c4.640625-4.222657 9.320313-8.40625 13.761719-12.855469zm-138.527344 191.863281 13.039063-104.351562 38.902343-21.863281c17.867188-10.039063 34.792969-21.5625 50.859376-34.183594l-27.851563 97.445312c-9.820313 34.402344-39.917969 59.242188-74.949219 62.953125zm262.871094-165.765625-18.433594 4.605469-1.214844 4.542969c-2.367187 8.839844-5.847656 17.265625-10.351562 25.035156l-2.367188 4.078125 9.773438 16.28125-25.109375 25.101563-16.28125-9.765626-4.078125 2.359376c-7.792969 4.503906-16.210938 7.992187-25.027344 10.351562l-4.542968 1.214844-4.605469 18.441406h-35.523438l-4.605469-18.433594-4.542968-1.214844c-5.554688-1.488281-11.160156-3.75-16.753906-6.390624l4.367187-15.289063c12.160156 6.097656 25.542969 9.328125 39.296875 9.328125 48.519531 0 88-39.480469 88-88 0-28-13.703125-54.328125-36.121094-70.800781 5.890625-7.917969 11.441406-16.054688 16.722656-24.382813l3.695313-2.214844 25.109375 25.101563-9.773438 16.28125 2.367188 4.078125c4.496094 7.777344 7.984375 16.195312 10.351562 25.035156l1.214844 4.542969 18.433594 4.605469zm0 0" data-original="#000000" class="active-path" data-old_color="#000000" fill="#7431FF"/><path d="m228.070312 321.289062 15.996094-8.996093 7.84375 13.945312-15.996094 8.996094zm0 0" data-original="#000000" class="active-path" data-old_color="#000000" fill="#7431FF"/><path d="m319.449219 277.9375-10.722657-11.875c-15.167968 13.679688-31.628906 26.121094-48.964843 36.96875l8.484375 13.5625c18.121094-11.335938 35.347656-24.347656 51.203125-38.65625zm0 0" data-original="#000000" class="active-path" data-old_color="#000000" fill="#7431FF"/><path d="m195.871094 188.441406 12.9375 9.40625c3.070312-4.214844 6.230468-8.367187 9.480468-12.449218l-12.511718-9.957032c-3.402344 4.253906-6.707032 8.589844-9.90625 13zm0 0" data-original="#000000" class="active-path" data-old_color="#000000" fill="#7431FF"/><path d="m177.847656 215.734375 13.738282 8.203125c2.671874-4.480469 5.445312-8.890625 8.308593-13.234375l-13.34375-8.824219c-3.007812 4.554688-5.902343 9.167969-8.703125 13.855469zm0 0" data-original="#000000" class="active-path" data-old_color="#000000" fill="#7431FF"/><path d="m162.34375 244.527344 14.410156 6.945312c2.269532-4.695312 4.628906-9.335937 7.109375-13.914062l-14.078125-7.605469c-2.59375 4.789063-5.074218 9.648437-7.441406 14.574219zm0 0" data-original="#000000" class="active-path" data-old_color="#000000" fill="#7431FF"/><path d="m392 176c0-44.113281-35.886719-80-80-80s-80 35.886719-80 80 35.886719 80 80 80 80-35.886719 80-80zm-144 0c0-35.289062 28.710938-64 64-64s64 28.710938 64 64-28.710938 64-64 64-64-28.710938-64-64zm0 0" data-original="#000000" class="active-path" data-old_color="#000000" fill="#7431FF"/><path d="m360 176c0-26.472656-21.527344-48-48-48s-48 21.527344-48 48 21.527344 48 48 48 48-21.527344 48-48zm-80 0c0-17.648438 14.351562-32 32-32s32 14.351562 32 32-14.351562 32-32 32-32-14.351562-32-32zm0 0" data-original="#000000" class="active-path" data-old_color="#000000" fill="#7431FF"/></g> </svg>
