<?xml version="1.0" encoding="UTF-8"?>
<svg width="700px" height="600px" viewBox="0 0 700 600" version="1.1" xmlns="http://www.w3.org/2000/svg" xmlns:xlink="http://www.w3.org/1999/xlink">
    <!-- Generator: Sketch 55.2 (78181) - https://sketchapp.com -->
    <title>Artboard</title>
    <desc>Created with Sketch.</desc>
    <defs>
        <linearGradient x1="55.8019531%" y1="124.18784%" x2="40.1949651%" y2="25.3111456%" id="linearGradient-1">
            <stop stop-color="#F7C9AA" offset="0%"></stop>
            <stop stop-color="#FF717A" offset="100%"></stop>
        </linearGradient>
        <linearGradient x1="-24.985027%" y1="44.1805865%" x2="89.3681489%" y2="53.1147849%" id="linearGradient-2">
            <stop stop-color="#F7C9AA" offset="0%"></stop>
            <stop stop-color="#FF717A" offset="100%"></stop>
        </linearGradient>
        <linearGradient x1="87.7286882%" y1="149.658282%" x2="26.4013235%" y2="11.5058007%" id="linearGradient-3">
            <stop stop-color="#F7C9AA" offset="0%"></stop>
            <stop stop-color="#FF717A" offset="100%"></stop>
        </linearGradient>
        <linearGradient x1="51.9962398%" y1="73.2635452%" x2="43.6573767%" y2="17.3330647%" id="linearGradient-4">
            <stop stop-color="#F7C9AA" offset="0%"></stop>
            <stop stop-color="#FF717A" offset="100%"></stop>
        </linearGradient>
        <linearGradient x1="33.2627785%" y1="93.6709415%" x2="39.2566275%" y2="83.0488718%" id="linearGradient-5">
            <stop stop-color="#F7C9AA" offset="0%"></stop>
            <stop stop-color="#FF717A" offset="100%"></stop>
        </linearGradient>
        <linearGradient x1="5.45443685e-05%" y1="50.0014634%" x2="99.9967818%" y2="50.0014634%" id="linearGradient-6">
            <stop stop-color="#F7C9AA" offset="0%"></stop>
            <stop stop-color="#FF717A" offset="100%"></stop>
        </linearGradient>
        <linearGradient x1="50.9315609%" y1="50.181601%" x2="79.0438815%" y2="55.6040627%" id="linearGradient-7">
            <stop stop-color="#7571A8" offset="0%"></stop>
            <stop stop-color="#3E4283" offset="100%"></stop>
        </linearGradient>
        <linearGradient x1="14.8429251%" y1="40.0098274%" x2="224.038107%" y2="99.4657988%" id="linearGradient-8">
            <stop stop-color="#535AB1" offset="0%"></stop>
            <stop stop-color="#3E4483" offset="100%"></stop>
        </linearGradient>
        <linearGradient x1="45.1492222%" y1="7.19645069%" x2="54.7474353%" y2="91.8935999%" id="linearGradient-9">
            <stop stop-color="#71A896" offset="0%"></stop>
            <stop stop-color="#3E8383" offset="100%"></stop>
        </linearGradient>
        <linearGradient x1="47.1378225%" y1="10.883917%" x2="54.03794%" y2="105.26447%" id="linearGradient-10">
            <stop stop-color="#7173A8" offset="0%"></stop>
            <stop stop-color="#4E2E91" offset="100%"></stop>
        </linearGradient>
        <linearGradient x1="5.3537538%" y1="3.70758888%" x2="12.1066337%" y2="10.6300679%" id="linearGradient-11">
            <stop stop-color="#6C63FF" offset="0%"></stop>
            <stop stop-color="#433CA5" offset="100%"></stop>
        </linearGradient>
        <linearGradient x1="37.4207989%" y1="44.4562216%" x2="52.7554453%" y2="52.0347717%" id="linearGradient-12">
            <stop stop-color="#6D6BB3" offset="0%"></stop>
            <stop stop-color="#473E83" offset="100%"></stop>
        </linearGradient>
    </defs>
    <g id="Artboard" stroke="none" stroke-width="1" fill="none" fill-rule="evenodd">
        <g id="Asset-2" transform="translate(37.000000, 0.000000)" fill-rule="nonzero">
            <g id="Group" opacity="0.2" transform="translate(376.000000, 18.000000)" fill="#B6B8CC">
                <path d="M249.640884,497.80507 L0.303867403,497.80507 L0.303867403,0.0278471575 L249.640884,0.0278471575 L249.640884,497.80507 Z M6.00828729,492.054632 L243.936464,492.054632 L243.936464,5.77828518 L6.00828729,5.77828518 L6.00828729,492.054632 Z" id="Shape"></path>
            </g>
            <g id="Group" opacity="0.2" transform="translate(384.000000, 30.000000)">
                <rect id="Rectangle" fill="#B6B8CC" x="0.461068548" y="0.126703911" width="230.487702" height="59.7338547"></rect>
                <rect id="Rectangle" fill="#B6B8CC" x="0.461068548" y="76.9327374" width="230.487702" height="6.84201117"></rect>
                <rect id="Rectangle" fill="#B6B8CC" x="0.461068548" y="64.9756425" width="230.487702" height="6.84201117"></rect>
                <rect id="Rectangle" fill="#B6CCC6" x="212.790121" y="49.2690503" width="1.85358871" height="31.4131844"></rect>
                <rect id="Rectangle" fill="#B6CCC6" x="16.7707863" y="49.2690503" width="1.85358871" height="31.4131844"></rect>
            </g>
            <g id="Group" opacity="0.2" transform="translate(378.000000, 299.000000)" fill="#B6CCC6">
                <rect id="Rectangle" x="0.393785311" y="0.232142857" width="245.156836" height="4.425"></rect>
            </g>
            <g id="Group" opacity="0.2" transform="translate(498.000000, 301.000000)" fill="#B6CCC6">
                <rect id="Rectangle" x="0.0961538462" y="0.387973856" width="4.76538462" height="211.381089"></rect>
            </g>
            <g id="Group" opacity="0.2" transform="translate(219.000000, 0.000000)" fill="#B6B8CC">
                <path d="M41.0282913,-4.25341362e-06 C18.4710272,0.00771881172 0.190279713,18.3236558 0.195417106,40.9114741 C0.200556664,63.4992924 18.4896356,81.8068876 41.0469008,81.8043155 C63.604166,81.8017435 81.8890824,63.489978 81.8890824,40.9021591 C81.8903177,30.0514307 77.5853049,19.6449691 69.9217509,11.9736563 C62.2581968,4.30234348 51.8643412,-0.00494458209 41.0282913,-4.25341362e-06 Z M41.0282913,74.6246594 C27.4045342,74.6265435 15.1213011,66.4098757 9.90684567,53.8064774 C4.69239022,41.203079 7.57374393,26.6952969 17.207195,17.0487974 C26.8406461,7.40229794 41.3288041,4.51704147 53.9151544,9.73855984 C66.5015047,14.9600782 74.7070581,27.2599488 74.7051766,40.9021591 C74.7051766,49.8459222 71.1570861,58.423372 64.841445,64.7475675 C58.525804,71.071763 49.9599565,74.6246594 41.0282913,74.6246594 Z" id="Shape"></path>
                <path d="M56.5639529,43.1198864 L38.8135638,43.1198864 L38.8135638,15.01625 C38.8135638,13.791433 39.8051311,12.7985227 41.0282913,12.7985227 C42.2514515,12.7985227 43.2430187,13.791433 43.2430187,15.01625 L43.2430187,38.6704545 L56.5639529,38.6704545 C57.748937,38.7248275 58.6817414,39.7026771 58.6817414,40.8905114 C58.6817414,42.0783456 57.748937,43.0561952 56.5639529,43.1105682 L56.5639529,43.1198864 Z" id="Path"></path>
            </g>
            <g id="Group" opacity="0.2" transform="translate(196.000000, 442.000000)">
                <polygon id="Path" fill="#B6B8CC" points="85.8252406 43.1758235 0.133368984 43.1758235 9.07368984 157.948882 76.8849198 157.948882"></polygon>
                <path d="M65.6589305,43.1758235 L65.6589305,43.1758235 C65.6589305,31.3031958 56.1339442,21.6785294 44.3842781,21.6785294 L41.5743316,21.6785294 C29.8246655,21.6785294 20.2996791,31.3031958 20.2996791,43.1758235 L0.133368984,43.1758235 C0.140984016,19.4311896 19.1885556,0.184282959 42.6872727,0.176588235 L43.2713369,0.176588235 C66.773209,0.176588235 85.8252406,19.4280016 85.8252406,43.1758235 L65.6589305,43.1758235 Z" id="Path" fill="#B6B8CC"></path>
                <ellipse id="Oval" fill="#B6CCC6" cx="42.9770053" cy="33.6354118" rx="3.97807487" ry="4.01970588"></ellipse>
            </g>
            <g id="Group" opacity="0.2" transform="translate(0.000000, 37.000000)" fill="#B6B8CC">
                <polygon id="Path" points="85.3698913 358.189604 105.745842 562.953586 158.899891 562.953586 170.628261 358.189604"></polygon>
                <path d="M134.783315,384.088533 C134.783315,384.088533 -53.6605435,123.924979 15.0926087,162.323157 C83.8457609,200.721336 134.783315,384.088533 134.783315,384.088533 Z" id="Path"></path>
                <path d="M134.783315,383.192745 C134.783315,383.192745 1.42108547e-14,89.2027782 55.9327989,72.6701649 C111.865598,56.1375515 134.783315,383.192745 134.783315,383.192745 Z" id="Path"></path>
                <path d="M138.570408,385.160692 C138.570408,385.160692 54.2925,5.53253092 124.230571,0.17637263 C194.168641,-5.17978566 138.570408,385.160692 138.570408,385.160692 Z" id="Path"></path>
            </g>
            <polygon id="Path" fill="url(#linearGradient-1)" points="347 367 431.596411 580.076087 366.40225 600 458 600 381.667768 372.151219"></polygon>
            <polygon id="Path" fill="#8C6246" points="324 380.816867 374.429357 540 430 514.836423 381.854624 371"></polygon>
            <polygon id="Path" fill="#8C6246" points="431.056972 579 450.444675 579 457 600 367 600"></polygon>
            <path d="M487.068084,587.414226 L462.075699,587.414226 L462.075699,497.296382 L466.474881,497.296382 L466.474881,500.678809 L466.474881,500.678809 C471.797354,500.678809 476.112071,496.394671 476.112071,491.109919 L476.112071,487.63495 C476.112071,482.350198 471.797354,478.06606 466.474881,478.06606 L466.474881,478.06606 L466.474881,491.79936 L462.075699,491.79936 L462.075699,438.814177 L481.825415,438.814177 C491.853869,438.814185 499.987143,430.748906 500,420.791533 L462.075699,420.791533 L462.075699,412 L456.017504,412 L456.017504,420.791533 L418,420.791533 C418.012831,430.738077 426.129089,438.798882 436.146624,438.814177 L456.036145,438.814177 L456.036145,587.414226 L431.04376,587.414226 C427.68198,587.414226 424.457889,588.740223 422.080752,591.100514 C419.703614,593.460804 418.368152,596.662045 418.368152,600 L499.739032,600 C499.740268,596.662471 498.405843,593.461218 496.029445,591.100794 C493.653047,588.740371 490.429436,587.414226 487.068084,587.414226 L487.068084,587.414226 Z" id="Path" fill="#231F20"></path>
            <path d="M213.043371,303.064416 C217.80614,303.065647 222.37419,301.162833 225.741976,297.774831 C229.109762,294.386829 231.001223,289.791358 231,285 L120,285 C120,289.795808 121.895646,294.394786 125.269153,297.783322 C128.642661,301.171859 133.21711,303.071806 137.984296,303.064416 L172.537202,303.064416 L172.537202,590.039984 L138.874288,590.039984 C136.244123,590.032586 133.719229,591.078823 131.857252,592.947625 C129.995275,594.816427 128.94941,597.354036 128.950646,600 L222.044742,600 C222.044742,594.499235 217.612099,590.039984 212.144156,590.039984 L178.481243,590.039984 L178.481243,303.064416 L213.043371,303.064416 Z" id="Path" fill="#231F20"></path>
            <path d="M278.870982,216.326412 C278.870982,216.326412 263.73907,258.962103 302.954555,244.437346 L307.000818,234.010745 L354.867729,304 L390,254.464353 L309.947753,208 L278.870982,216.326412 Z" id="Path" fill="url(#linearGradient-2)"></path>
            <polygon id="Path" fill="#B6B8CC" points="357.092046 231 333 280 371 278.104485 371 236.942069"></polygon>
            <path d="M483.006125,410 C481.345888,410 480,408.632945 480,406.946596 C480,405.260248 481.345888,403.893192 483.006125,403.893192 C496.311699,403.893192 507.346492,399.327179 515.800642,390.326685 C537.860978,366.838963 535.987931,320.737264 535.969431,320.276904 C535.885904,319.171235 536.400945,318.106904 537.313835,317.498698 C538.226724,316.890492 539.393016,316.834648 540.358187,317.352929 C541.323358,317.871209 541.934688,318.881607 541.953934,319.990354 C542.182031,329.196908 541.562698,338.404972 540.10401,347.494476 C536.894393,368.003954 530.169922,383.825283 520.120213,394.526289 C510.509861,404.804516 498.018254,410 483.006125,410 Z" id="Path" fill="#231F20"></path>
            <path d="M370,163.720166 C370,163.720166 402.001557,161.766586 398.161931,180 L418,163.658374 C418,163.658374 397.521993,167.399171 391.117945,133 L370,163.720166 Z" id="Path" fill="url(#linearGradient-3)"></path>
            <path d="M400.353683,120.19009 C398.374009,120.195537 396.412738,120.575427 394.57067,121.310237 C388.815528,112.052556 379.316523,106 368.558726,106 C350.996019,106 336.763769,122.119754 336.763769,142 C336.755754,146.211835 337.409591,150.398105 338.70073,154.401621 C339.982747,157.907962 334,164.788861 334,164.788861 C334,164.788861 339.109489,166.200811 343.11347,163.579291 C348.812873,173.260557 357.51294,178 368.558726,178 C380.463835,178 390.854678,170.58256 396.284672,159.611714 C397.61022,159.973324 398.976304,160.159989 400.349038,160.167081 C410.103517,160.167081 418,151.224735 418,140.178585 C418,129.132436 410.108162,120.19009 400.353683,120.19009 Z" id="Path" fill="url(#linearGradient-4)"></path>
            <path d="M517,306.938604 C517.077175,322.598621 514.218764,338.114756 507.612452,352.632993 C477.147443,419.403891 421.294924,412.404689 369.2459,397.139189 L275.742966,527.64088 L223.893149,600 L149,600 L220.274966,575.980857 L358.141181,356.127953 L414.95268,344.362054 L407.595862,302.909886 L387.980769,192.384696 C387.980769,192.384696 398.441534,144.262864 443.508994,171.18287 C478.782806,192.250096 516.771413,250.573681 517,306.938604 Z" id="Path" fill="url(#linearGradient-5)"></path>
            <path d="M517,308.0356 C517.077199,323.650409 514.217887,339.121752 507.609493,353.598078 C477.134881,420.176219 429.560006,415.538982 377.494575,400.312923 L300.038267,538 L265.133342,523.815237 L263.25185,523.046992 L248.987729,517.248131 L238,512.782129 L333.654879,343.860805 L414.915879,345.332503 L407.556742,304 L481.602266,306.721253 L482.593988,306.758277 L517,308.0356 Z" id="Path" fill="#CA9E67"></path>
            <path d="M445.7177,335.426257 C418.823238,363.879385 362.177327,387.874442 302.383651,338.549217 C286.690984,325.613877 270.804467,307.666093 255.171801,283.435429 C253.427155,280.734077 250.43297,279.102535 247.219312,279.10209 L219.752529,279.10209 C215.704744,279.10209 214.53241,273.558372 218.229418,271.918356 L236.308293,263.847628 C243.603151,260.580958 252.188306,263.065147 256.61645,269.723968 L259.067275,273.41978 L365.920489,273.41978 C365.920489,273.41978 365.818948,271.571874 365.772793,268.379617 L365.772793,268.180967 C365.449709,246.930051 367.397446,168.066053 413.340036,167.008127 C466.459713,165.806988 481.0262,298.089321 445.7177,335.426257 Z" id="Path" fill="url(#linearGradient-6)"></path>
            <path d="M137.614987,272.822455 L158,212.087927 L154.721962,210 L134.035625,274.318566 C133.867086,275.759067 134.30173,277.205427 135.229562,278.291613 C136.157394,279.377799 137.4895,280 138.888765,280 L153.954956,280 C153.954956,278.211472 152.556826,276.761583 150.832145,276.761583 L142.468127,276.761583 C139.55533,276.747379 137.272573,275.843084 137.614987,272.822455 Z" id="Path" fill="#1D1D1B"></path>
            <polygon id="Rectangle" fill="#1D1D1B" transform="translate(140.691480, 176.997094) rotate(-22.300000) translate(-140.691480, -176.997094) " points="137.537637 91.9166183 143.886303 91.9150886 143.845322 262.07757 137.496656 262.0791"></polygon>
            <path d="M261.000002,285.059707 L261.000002,285.940293 C261.000002,289.278134 258.254029,291.987499 254.858369,292 C188.491887,292 138.717025,292 105.533784,292 C72.3505423,292 68.5593151,292 94.160102,292 C90.7572257,291.997494 88.0000008,289.285205 88.0000017,285.940293 L88.0000017,285.059707 C87.9987764,283.45299 88.6472442,281.911668 89.8026199,280.775122 C90.9579956,279.638576 92.5255414,279 94.160102,279 L254.858369,279 C258.255086,279.010011 261.00256,281.720836 261.000002,285.059707 Z" id="Path" fill="url(#linearGradient-7)"></path>
            <path d="M510.986002,405.518092 L510.986002,417.481908 C510.986002,425.500029 504.30122,432 496.055123,432 L419.9263,432 C412.779614,432 406.635279,427.075213 405.270708,420.253956 C405.087444,419.340775 404.996802,418.412308 405,417.481908 L405,405.518092 C405,397.499971 411.684869,391 419.930966,391 L496.06912,391 C504.315217,391 511,397.499971 511,405.518092 L510.986002,405.518092 Z" id="Path" fill="url(#linearGradient-8)"></path>
            <path d="M271.108515,97.795474 C238.959329,126.082627 251.180376,172.091187 376.310549,132.778708 L388.902352,148 C388.902352,148 385.658237,121.744191 392.08622,120.650391 C398.514203,119.55659 405.400997,116.652044 415.833146,129.750076 L415.833146,129.750076 C420.447481,121.196507 417.463055,110.556751 409.057579,105.594548 C378.548989,87.5927967 298.289569,73.8743318 271.108515,97.795474 Z" id="Path" fill="#1D1D1B"></path>
            <path d="M315.781626,241.55852 C312.363641,244.382352 308.267472,246.185855 303.934258,246.774799 C290.644289,248.617996 278.428364,238.944583 276.644867,225.165174 L274,204.68645 L286.610834,202.938266 L322.139304,198 L324.784171,218.478725 C325.923054,227.28041 322.501389,236.052521 315.781626,241.55852 L315.781626,241.55852 Z" id="Path" fill="#EDEDED"></path>
            <path d="M517,307 L482.349205,305.737006 L406.764444,302.95099 L401.685626,274.510409 L387,192.39723 C387,192.39723 397.540414,144.254872 442.951022,171.186361 C478.493411,192.262572 516.771266,250.611035 517,307 Z" id="Path" fill="#F6F6F6"></path>
            <path d="M484.380086,306 L408.123931,303.247487 L403,275.148915 L447.377578,191 C447.377578,191 490.643715,273.323081 484.380086,306 Z" id="Path" fill="#B6B8CC" opacity="0.5"></path>
            <path d="M315.126606,197 C315.126606,197 326.807815,171.626616 309.59922,155.650782 C292.390625,139.674948 304.509419,137.880016 299.751261,117.529623 C294.993103,97.1792297 255.702601,94.294182 260.38706,134.572079 C265.07152,174.849976 299.603864,156.745597 306.909226,171.621918 C314.214587,186.498238 315.126606,197 315.126606,197 Z" id="Path" fill="#B6B8CC" opacity="0.2"></path>
            <path d="M480.982803,306 C480.92238,330.497932 473.513595,347.876966 458.960957,357.644541 C426.244248,379.582086 367.680455,356.176152 367.085522,355.939165 L366.304671,355.613889 L311.8264,443.954214 L301.461538,437.248881 L295.628399,446.25438 L306.193121,453.089824 L302.405066,459.237541 L291.71485,452.318455 L285.895654,461.347188 L296.790379,468.396385 L263,523.228631 L264.887056,524 L298.477574,469.50697 L308.196375,475.75227 L314.024866,466.742124 L304.110853,460.329539 L307.898908,454.181822 L317.947711,460.687343 L323.780851,451.681843 L313.532187,445.050859 L367.136649,358.104574 C377.910535,362.132994 389.038258,365.143336 400.373925,367.096133 C417.891936,370.056145 442.474785,371.110969 460.081106,359.308096 C475.219382,349.16413 482.930281,331.22748 483,306.037174 L483,306 L480.982803,306 Z" id="Path" fill="#B58959"></path>
            <rect id="Rectangle" fill="#8C6246" x="408" y="304" width="109" height="8"></rect>
            <path d="M453.974306,323.282087 C451.81788,327.712229 449.024667,331.803943 445.6832,335.427539 C436.441462,345.089421 425.417604,352.877852 413.217413,358.364841 C383.606321,371.702201 343.566571,372.741656 302,338.550523 L324.060264,273.411357 L365.700863,273.411357 L365.552808,268.371156 L365.552808,268.181744 C365.228936,246.930669 367.181418,168.06608 413.23592,167.008146 C461.710204,165.913253 478.139734,275.481027 453.974306,323.282087 Z" id="Path" fill="#F6F6F6"></path>
            <polygon id="Path" fill="#B6B8CC" points="309.711127 268 279 328.550229 304.654016 350 329 268"></polygon>
            <path d="M318.738284,242 C317.453585,241.881206 316.176488,241.685731 314.913291,241.414539 C297.937561,237.73126 286.715212,220.832265 289.395058,202.988317 L325.122412,198 L327.782085,218.686283 C328.929462,227.575402 325.492255,236.436066 318.738284,242 L318.738284,242 Z" id="Path" fill="#F6F6F6"></path>
            <ellipse id="Oval" fill="#1D1D1B" transform="translate(344.933334, 153.220454) rotate(-11.880000) translate(-344.933334, -153.220454) " cx="344.933334" cy="153.220454" rx="1.26964471" ry="3.29202177"></ellipse>
            <path d="M550.88023,274.499779 L542.962882,334.308856 C542.453268,338.145974 540.378334,341.62747 537.199242,343.979569 C536.721185,344.341904 536.218984,344.673476 535.695888,344.972137 L535.634623,345.004009 C533.015238,346.492094 529.989193,347.174941 526.95853,346.961827 C526.675767,346.939062 526.393005,346.92085 526.10553,346.879872 L517.151387,345.800796 C516.915751,345.768924 516.680116,345.741606 516.458619,345.691522 L516.458619,345.691522 C508.539311,344.33993 503.111008,337.2225 504.120752,329.514478 L512.0381,269.7054 C512.894277,263.293499 518.021491,258.193511 524.630452,257.179915 C525.756616,257.004513 526.900169,256.957142 528.03774,257.03877 C528.325215,257.061535 528.607977,257.079748 528.895452,257.120725 L537.849595,258.222567 C538.085231,258.249886 538.320866,258.281757 538.532938,258.327288 L538.532938,258.327288 C541.571427,258.843712 544.370008,260.25604 546.54454,262.370411 L546.61523,262.4296 C549.890215,265.600617 551.464496,270.055917 550.88023,274.499779 Z" id="Path" fill="url(#linearGradient-9)"></path>
            <path d="M546.857246,262.443235 L546.787605,262.384051 C544.435116,260.568257 541.758724,259.197372 538.894977,258.341338 C535.545001,257.309086 532.035074,256.866723 528.527777,257.034741 C527.428193,257.093202 526.333446,257.219407 525.250015,257.412607 C523.435041,257.723034 521.666508,258.253694 519.985168,258.992361 C515.755647,260.881692 512.858589,263.968358 512.36646,267.742467 L504.074557,331.292275 C503.582429,335.039069 505.555586,338.726679 509.135125,341.576609 C511.509241,343.424567 514.218824,344.814852 517.120608,345.673953 C518.785633,346.188257 520.495056,346.552459 522.227603,346.762026 C523.965085,346.983592 525.71944,347.050636 527.469237,346.96234 C530.417278,346.833834 533.315413,346.17006 536.016489,345.00472 L536.076844,344.972852 C536.56433,344.75888 537.037888,344.517592 537.497517,344.267198 C540.909919,342.359657 543.203424,339.56891 543.635197,336.254614 L551.927099,272.704806 C552.414585,268.980776 550.4275,265.293166 546.857246,262.443235 Z" id="Path" fill="url(#linearGradient-10)"></path>
            <path d="M454,322.398529 C451.8303,326.894173 449.019894,331.046385 445.65786,334.723558 C436.359236,344.528295 425.267523,352.431883 412.992237,358 C404.558533,350.995752 401.05226,339.621655 404.064466,329.038957 C407.076673,318.456259 416.033809,310.679994 426.871377,309.238814 C437.708945,307.797635 448.363381,312.965952 454,322.398529 L454,322.398529 Z" id="Path" fill="#B6B8CC"></path>
            <rect id="Rectangle" fill="#1D1D1B" x="199" y="277" width="51" height="2"></rect>
            <circle id="Oval" fill="#F6F6F6" cx="290.5" cy="328.5" r="2.5"></circle>
            <path d="M512,417.150812 C512,425.351792 505.297214,432 497.028909,432 L420.695061,432 C413.529128,432 407.368245,426.962899 406,419.986079 C425.977049,420.329466 492.69665,419.484919 507.153109,394 C510.24162,396.80201 512,400.762594 512,404.914153 L512,417.150812 Z" id="Path" fill="url(#linearGradient-11)"></path>
            <path d="M175,292 L94.1795448,292 C90.7659282,291.997494 88,289.285205 88,285.940293 L88,285.059707 C87.9987726,283.45299 88.649287,281.911668 89.8083094,280.775122 C90.9673318,279.638576 92.5398251,279 94.1795448,279 L131.479155,279 C138.423035,283.834148 151.268517,288.990573 175,292 Z" id="Path" fill="url(#linearGradient-12)"></path>
            <polygon id="Path" fill="#8C6246" points="220.655019 576 235 585.187246 224.316973 600 149 600"></polygon>
        </g>
    </g>
</svg>