<?xml version="1.0" encoding="UTF-8"?>
<svg width="97px" height="28px" viewBox="0 0 97 28" version="1.1" xmlns="http://www.w3.org/2000/svg" xmlns:xlink="http://www.w3.org/1999/xlink">
    <!-- Generator: Sketch 61.1 (89650) - https://sketch.com -->
    <title>logo-black</title>
    <desc>Created with Sketch.</desc>
    <g id="Page-1" stroke="none" stroke-width="1" fill="none" fill-rule="evenodd">
        <g id="Artboard" transform="translate(-78.000000, -91.000000)" fill="#000000" fill-rule="nonzero">
            <g id="logo-black" transform="translate(78.000000, 91.000000)">
                <path d="M96.8648649,0 L96.8648649,27.9764982 L82.1245593,27.9764982 L82.1245593,0 L96.8648649,0 Z M32.1278496,9.05475911 C32.8297724,9.05475911 33.526671,9.1048957 34.2185664,9.20517039 C34.9104617,9.30544508 35.5371691,9.5110051 36.0987074,9.82185664 C36.6602457,10.1327082 37.111475,10.5688965 37.4524089,11.1304348 C37.7933429,11.691973 37.9638073,12.4239673 37.9638073,13.3264395 L37.9638073,21.3283196 C37.9638073,21.9299678 37.9989029,22.3711698 38.0690952,22.6519389 C38.1392875,22.932708 38.3749294,23.0730905 38.7760282,23.0730905 C38.9966325,23.0730905 39.2573428,23.0229539 39.5581669,22.9226792 L39.5581669,24.9081081 C39.1169582,25.1688223 38.5052918,25.2991774 37.7231492,25.2991774 C37.0613363,25.2991774 36.5349021,25.113672 36.1438308,24.7426557 C35.7527595,24.3716394 35.5572268,23.7649866 35.5572268,22.9226792 C34.855304,23.7649866 34.0380775,24.3716394 33.1055229,24.7426557 C32.1729683,25.113672 31.1652228,25.2991774 30.0822562,25.2991774 C29.3803333,25.2991774 28.7135167,25.2189589 28.0817861,25.0585194 C27.4500556,24.8980799 26.9035667,24.6473969 26.4423032,24.306463 C25.9810396,23.965529 25.6150425,23.5193134 25.3443008,22.9678026 C25.0735592,22.4162918 24.9381904,21.7494751 24.9381904,20.9673325 C24.9381904,20.0849153 25.0886001,19.3629484 25.3894242,18.8014101 C25.6902483,18.2398718 26.0863274,17.7836289 26.5776733,17.4326675 C27.0690193,17.081706 27.6305491,16.8159821 28.2622797,16.6354877 C28.8940102,16.4549932 29.5407722,16.3045834 30.2025852,16.1842538 C30.904508,16.0438693 31.5713247,15.9385824 32.2030552,15.8683901 C32.8347858,15.7981978 33.3913019,15.6979247 33.8726204,15.5675676 C34.353939,15.4372105 34.7349771,15.2466914 35.0157462,14.9960047 C35.2965153,14.745318 35.4368978,14.3793209 35.4368978,13.8980024 C35.4368978,13.3364641 35.3316109,12.8852348 35.1210341,12.5443008 C34.9104572,12.2033669 34.6397196,11.9426566 34.3088132,11.7621622 C33.9779067,11.5816677 33.6068959,11.4613399 33.1957697,11.4011751 C32.7846435,11.3410103 32.3785371,11.3109283 31.9774383,11.3109283 C30.8944717,11.3109283 29.992013,11.5164883 29.2700353,11.9276146 C28.5480575,12.3387408 28.1569921,13.115858 28.0968273,14.2589894 L25.5398355,14.2589894 C25.5799454,13.2963524 25.7804917,12.4841396 26.1414806,11.8223267 C26.5024695,11.1605137 26.9837808,10.6240522 27.5854289,10.212926 C28.187077,9.80179975 28.8739484,9.50599385 29.6460635,9.32549941 C30.4181786,9.14500497 31.2454323,9.05475911 32.1278496,9.05475911 Z M64.0150411,9.05475911 C65.3988318,9.05475911 66.5469598,9.34053768 67.4594595,9.91210341 C68.3719591,10.4836691 69.1039534,11.2106497 69.6554642,12.093067 C70.2069749,12.9754842 70.588013,13.9381068 70.7985899,14.9809636 C71.0091667,16.0238203 71.0943989,17.0165249 71.0542891,17.9591069 L59.4124559,17.9591069 C59.392401,18.6409748 59.4726195,19.2877369 59.653114,19.8994125 C59.8336084,20.5110881 60.1244007,21.0525633 60.5254994,21.5238543 C60.9265982,21.9951453 61.4379914,22.3711698 62.0596945,22.6519389 C62.6813975,22.932708 63.4133918,23.0730905 64.2556992,23.0730905 C65.3386658,23.0730905 66.2260835,22.8224075 66.9179788,22.3210341 C67.6098742,21.8196606 68.0661172,21.0575844 68.2867215,20.0347826 L70.813631,20.0347826 C70.4726971,21.7795622 69.7206482,23.0931409 68.5574618,23.9755582 C67.3942754,24.8579754 65.9302869,25.2991774 64.1654524,25.2991774 C62.9220463,25.2991774 61.8441095,25.0986311 60.9316099,24.6975323 C60.0191102,24.2964336 59.2520203,23.7349037 58.6303173,23.012926 C58.0086142,22.2909482 57.5423439,21.4285988 57.2314924,20.4258519 C56.9206408,19.4231051 56.7451628,18.3301273 56.7050529,17.146886 C56.7050529,15.9636447 56.8855446,14.8806943 57.2465335,13.8980024 C57.6075224,12.9153104 58.113902,12.0629883 58.7656874,11.3410106 C59.4174729,10.6190328 60.1895764,10.057503 61.0820212,9.65640423 C61.9744659,9.25530548 62.9521294,9.05475911 64.0150411,9.05475911 Z M88.8629847,9.05475911 C88.1811168,9.05475911 87.4942455,9.13999131 86.8023502,9.31045828 C86.1104548,9.48092525 85.4887611,9.74163553 84.9372503,10.0925969 C84.3857395,10.4435584 83.9345102,10.8998013 83.5835488,11.4613396 C83.2325874,12.0228779 83.0571093,12.6947082 83.0571093,13.4768508 C83.0571093,14.4795976 83.3077922,15.2617285 83.8091657,15.8232667 C84.3105391,16.384805 84.9372465,16.8209934 85.6893067,17.1318449 C86.4413669,17.4426964 87.2585933,17.6833521 88.1410106,17.853819 C89.0234278,18.024286 89.8406543,18.2148051 90.5927145,18.4253819 C91.3447746,18.6359587 91.971482,18.91171 92.4728555,19.2526439 C92.9742289,19.5935779 93.2249119,20.0949438 93.2249119,20.7567568 C93.2249119,21.2380753 93.104584,21.6341543 92.8639248,21.9450059 C92.6232655,22.2558574 92.3174323,22.4914994 91.946416,22.6519389 C91.5753996,22.8123784 91.1692932,22.9226789 90.7280846,22.9828437 C90.286876,23.0430085 89.8657286,23.0730905 89.4646298,23.0730905 C88.9432015,23.0730905 88.4368219,23.0229539 87.9454759,22.9226792 C87.4541299,22.8224045 87.0129279,22.6569538 86.6218566,22.426322 C86.2307854,22.1956902 85.9149248,21.8848433 85.6742656,21.493772 C85.4336063,21.1027007 85.3032512,20.6264031 85.2831962,20.0648649 L85.2831962,20.0648649 L82.7262045,20.0648649 C82.7663143,21.0275019 82.9668607,21.8447283 83.3278496,22.5165687 C83.6888385,23.1884092 84.1701498,23.7298844 84.7717979,24.1410106 C85.373446,24.5521368 86.065331,24.8479427 86.8474736,25.0284371 C87.6296161,25.2089316 88.4518562,25.2991774 89.3142186,25.2991774 C90.0963611,25.2991774 90.8835056,25.2239725 91.6756757,25.0735605 C92.4678457,24.9231485 93.1797853,24.6574245 93.8115159,24.2763807 C94.4432464,23.8953369 94.9546396,23.393971 95.3457109,22.7722679 C95.7367822,22.1505649 95.9323149,21.368434 95.9323149,20.4258519 C95.9323149,19.6838192 95.7869188,19.0621255 95.4961222,18.5607521 C95.2053256,18.0593786 94.8242875,17.6432449 94.3529965,17.3123384 C93.8817054,16.981432 93.3402302,16.715708 92.7285546,16.5151586 C92.116879,16.3146093 91.4901716,16.1441448 90.8484136,16.0037603 C90.2467655,15.8633757 89.6451264,15.7280069 89.0434783,15.5976498 C88.4418301,15.4672927 87.9003549,15.3068556 87.4190364,15.1163337 C86.9377179,14.9258118 86.5416388,14.6851562 86.2307873,14.3943596 C85.9199358,14.103563 85.7645123,13.7375659 85.7645123,13.2963572 C85.7645123,12.8952585 85.8647855,12.5693706 86.0653349,12.3186839 C86.2658843,12.0679972 86.5265946,11.8674508 86.8474736,11.7170388 C87.1683526,11.5666267 87.5243224,11.4613399 87.9153937,11.4011751 C88.3064649,11.3410103 88.6925167,11.3109283 89.0735605,11.3109283 C89.4947142,11.3109283 89.9108479,11.3560513 90.3219741,11.4462985 C90.7331004,11.5365457 91.1091248,11.6819418 91.4500588,11.8824912 C91.7909927,12.0830406 92.0717576,12.3487645 92.2923619,12.679671 C92.5129662,13.0105774 92.6433214,13.4267112 92.6834313,13.9280846 L92.6834313,13.9280846 L95.240423,13.9280846 C95.1802582,12.9855025 94.9797118,12.198358 94.6387779,11.5666275 C94.297844,10.934897 93.841601,10.433531 93.2700353,10.0625147 C92.6984695,9.69149834 92.0416802,9.43078806 91.2996475,9.28037603 C90.5576148,9.129964 89.745402,9.05475911 88.8629847,9.05475911 Z M16.7558167,9.05475911 C17.5379593,9.05475911 18.2448852,9.13999131 18.8766157,9.31045828 C19.5083463,9.48092525 20.0498215,9.74664919 20.5010576,10.1076381 C20.9522937,10.468627 21.3032498,10.9348973 21.5539365,11.506463 C21.8046233,12.0780287 21.9299647,12.7649 21.9299647,13.5670975 L21.9299647,24.9682726 L19.372973,24.9682726 L19.372973,14.7703878 C19.372973,14.2890693 19.3328637,13.8378399 19.2526439,13.4166863 C19.1724242,12.9955326 19.0220144,12.6295354 18.8014101,12.3186839 C18.5808058,12.0078324 18.2749726,11.7621631 17.8839013,11.5816686 C17.49283,11.4011742 16.9864504,11.3109283 16.3647474,11.3109283 C15.1012863,11.3109283 14.1085818,11.6719118 13.386604,12.3938895 C12.6646262,13.1158673 12.3036428,14.0784899 12.3036428,15.2817861 L12.3036428,24.9682726 L9.746651,24.9682726 L9.746651,14.7703878 C9.746651,14.2690143 9.70152807,13.8077577 9.61128085,13.386604 C9.52103363,12.9654503 9.36561019,12.5994532 9.14500588,12.2886016 C8.92440156,11.9777501 8.62859567,11.7370945 8.25757932,11.5666275 C7.88656297,11.3961605 7.41026534,11.3109283 6.82867215,11.3109283 C6.08663945,11.3109283 5.44990473,11.4613381 4.91844888,11.7621622 C4.38699303,12.0629862 3.95581834,12.4239697 3.62491187,12.8451234 C3.2940054,13.2662771 3.05334975,13.7024654 2.90293772,14.1537015 C2.75252569,14.6049376 2.6773208,14.9809621 2.6773208,15.2817861 L2.6773208,24.9682726 L0.120329025,24.9682726 L0.120329025,9.41574618 L2.52690952,9.41574618 L2.52690952,11.7019976 L2.58707403,11.7019976 C3.75026042,9.93716313 5.4248226,9.05475911 7.61081081,9.05475911 C8.57344782,9.05475911 9.44582453,9.25530548 10.2279671,9.65640423 C11.0101097,10.057503 11.5616122,10.7393606 11.8824912,11.7019976 C12.4039196,10.8596903 13.0907909,10.2079146 13.9431257,9.746651 C14.7954606,9.28538743 15.7330149,9.05475911 16.7558167,9.05475911 Z M44.6420682,3.48954172 L44.6420682,16.2143361 L51.7414806,9.41574618 L55.1708578,9.41574618 L49.0039953,15.0712103 L55.6220917,24.9682726 L52.373208,24.9682726 L47.0486486,16.8460635 L44.6420682,19.0721504 L44.6420682,24.9682726 L42.0850764,24.9682726 L42.0850764,3.48954172 L44.6420682,3.48954172 Z M81.7936545,9.05475911 L81.7936545,11.7621622 C80.7708527,11.7621622 79.898476,11.9025446 79.1764982,12.1833137 C78.4545205,12.4640829 77.872936,12.8752029 77.4317274,13.4166863 C76.9905187,13.9581696 76.6696446,14.6149589 76.4690952,15.387074 C76.2685458,16.1591891 76.1682726,17.0466068 76.1682726,18.0493537 L76.1682726,24.9682726 L73.6112808,24.9682726 L73.6112808,9.41574618 L76.0178613,9.41574618 L76.0178613,12.6947121 L76.0780259,12.6947121 C76.6997289,11.431251 77.4618051,10.4987104 78.3642773,9.89706228 C79.2667495,9.29541415 80.4098638,9.01464923 81.7936545,9.05475911 Z M35.4068155,16.9363102 C35.0859365,17.1769695 34.6647891,17.3524475 34.1433608,17.4627497 C33.6219324,17.5730519 33.0754435,17.6632977 32.5038778,17.73349 C31.9323121,17.8036823 31.3557413,17.8839008 30.7741481,17.9741481 C30.1925549,18.0643953 29.6711343,18.2097914 29.2098707,18.4103408 C28.7486072,18.6108902 28.3725827,18.8966687 28.0817861,19.2676851 C27.7909895,19.6387014 27.6455934,20.145081 27.6455934,20.786839 C27.6455934,21.2079927 27.7308256,21.5639625 27.9012926,21.8547591 C28.0717596,22.1455557 28.2923606,22.3811977 28.5631022,22.5616921 C28.8338439,22.7421866 29.1497044,22.8725417 29.5106933,22.9527615 C29.8716822,23.0329812 30.2527203,23.0730905 30.653819,23.0730905 C31.4961264,23.0730905 32.2180933,22.9577763 32.8197415,22.7271445 C33.4213896,22.4965128 33.9127282,22.2057205 34.293772,21.8547591 C34.6748158,21.5037977 34.9555808,21.1227596 35.1360752,20.7116334 C35.3165696,20.3005071 35.4068155,19.9144554 35.4068155,19.5534665 L35.4068155,16.9363102 Z M63.8646298,11.3109283 C63.2028169,11.3109283 62.6061915,11.4262425 62.0747356,11.6568743 C61.5432798,11.887506 61.0870368,12.2033666 60.7059929,12.6044653 C60.3249491,13.0055641 60.0241296,13.4718344 59.8035253,14.0032902 C59.5829209,14.5347461 59.4525658,15.1012896 59.4124559,15.7029377 L68.346886,15.7029377 C68.3067761,15.1012896 68.1714073,14.5297324 67.9407756,13.9882491 C67.7101438,13.4467658 67.3992969,12.9804955 67.0082256,12.5894242 C66.6171543,12.1983529 66.1558977,11.887506 65.6244418,11.6568743 C65.092986,11.4262425 64.5063879,11.3109283 63.8646298,11.3109283 Z" id="Combined-Shape"></path>
            </g>
        </g>
    </g>
</svg>