<?xml version="1.0" encoding="UTF-8"?>
<svg width="700px" height="600px" viewBox="0 0 700 600" version="1.1" xmlns="http://www.w3.org/2000/svg" xmlns:xlink="http://www.w3.org/1999/xlink">
    <!-- Generator: Sketch 55.2 (78181) - https://sketchapp.com -->
    <title>Artboard</title>
    <desc>Created with Sketch.</desc>
    <defs>
        <linearGradient x1="50.0002971%" y1="163.261151%" x2="50.0002971%" y2="-18.9412392%" id="linearGradient-1">
            <stop stop-color="#FFFFFF" stop-opacity="0" offset="0%"></stop>
            <stop stop-color="#B6B8CC" offset="100%"></stop>
        </linearGradient>
        <linearGradient x1="29.6848667%" y1="-25.0945557%" x2="54.9760936%" y2="68.4011543%" id="linearGradient-2">
            <stop stop-color="#F7C9AA" offset="0%"></stop>
            <stop stop-color="#FF717A" offset="100%"></stop>
        </linearGradient>
        <linearGradient x1="54.9540595%" y1="68.3235856%" x2="100.71076%" y2="237.467461%" id="linearGradient-3">
            <stop stop-color="#F7C9AA" offset="0%"></stop>
            <stop stop-color="#FF717A" offset="100%"></stop>
        </linearGradient>
        <linearGradient x1="0%" y1="50.0010687%" x2="100.001262%" y2="50.0010687%" id="linearGradient-4">
            <stop stop-color="#6C63FF" offset="0%"></stop>
            <stop stop-color="#433CA5" offset="100%"></stop>
        </linearGradient>
        <linearGradient x1="51.1728095%" y1="13.5273425%" x2="48.0733528%" y2="105.95733%" id="linearGradient-5">
            <stop stop-color="#71A896" offset="0%"></stop>
            <stop stop-color="#3E8383" offset="100%"></stop>
        </linearGradient>
        <linearGradient x1="50.0906332%" y1="44.1814596%" x2="49.2439589%" y2="88.6433679%" id="linearGradient-6">
            <stop stop-color="#71A896" offset="0%"></stop>
            <stop stop-color="#3E8383" offset="100%"></stop>
        </linearGradient>
        <linearGradient x1="48.4332439%" y1="13.2806432%" x2="51.0185472%" y2="70.8620768%" id="linearGradient-7">
            <stop stop-color="#71A896" offset="0%"></stop>
            <stop stop-color="#3E8383" offset="100%"></stop>
        </linearGradient>
        <linearGradient x1="52.839969%" y1="-7.75790922%" x2="46.6311655%" y2="127.735901%" id="linearGradient-8">
            <stop stop-color="#71A896" offset="0%"></stop>
            <stop stop-color="#3E8383" offset="100%"></stop>
        </linearGradient>
        <linearGradient x1="49.9128802%" y1="55.151969%" x2="53.9255601%" y2="9.83586095%" id="linearGradient-9">
            <stop stop-color="#F7C9AA" offset="0%"></stop>
            <stop stop-color="#FF717A" offset="100%"></stop>
        </linearGradient>
        <linearGradient x1="50.0962701%" y1="55.1529942%" x2="46.0761787%" y2="9.84293849%" id="linearGradient-10">
            <stop stop-color="#F7C9AA" offset="0%"></stop>
            <stop stop-color="#FF717A" offset="100%"></stop>
        </linearGradient>
        <linearGradient x1="48.6812834%" y1="78.4933267%" x2="42.0186484%" y2="-22.6020761%" id="linearGradient-11">
            <stop stop-color="#F7C9AA" offset="0%"></stop>
            <stop stop-color="#FF717A" offset="100%"></stop>
        </linearGradient>
        <linearGradient x1="54.7548915%" y1="84.6593306%" x2="15.226259%" y2="-13.3324163%" id="linearGradient-12">
            <stop stop-color="#F7C9AA" offset="0%"></stop>
            <stop stop-color="#FF717A" offset="100%"></stop>
        </linearGradient>
        <linearGradient x1="44.3254453%" y1="130.553078%" x2="60.222582%" y2="-8.54148082%" id="linearGradient-13">
            <stop stop-color="#F7C9AA" offset="0%"></stop>
            <stop stop-color="#FF717A" offset="100%"></stop>
        </linearGradient>
        <linearGradient x1="49.2923978%" y1="109.041041%" x2="50.8724625%" y2="-34.9858884%" id="linearGradient-14">
            <stop stop-color="#F7C9AA" offset="0%"></stop>
            <stop stop-color="#FF717A" offset="100%"></stop>
        </linearGradient>
        <linearGradient x1="50.1343382%" y1="69.8677318%" x2="40.6690112%" y2="-19.9440666%" id="linearGradient-15">
            <stop stop-color="#F7C9AA" offset="0%"></stop>
            <stop stop-color="#FF717A" offset="100%"></stop>
        </linearGradient>
        <linearGradient x1="42.2512608%" y1="73.1220234%" x2="57.110798%" y2="15.894176%" id="linearGradient-16">
            <stop stop-color="#F7C9AA" offset="0%"></stop>
            <stop stop-color="#FF717A" offset="100%"></stop>
        </linearGradient>
        <linearGradient x1="42.1457849%" y1="58.7757442%" x2="33.7127656%" y2="31.7120352%" id="linearGradient-17">
            <stop stop-color="#F7C9AA" offset="0%"></stop>
            <stop stop-color="#FF717A" offset="100%"></stop>
        </linearGradient>
        <linearGradient x1="48.5075845%" y1="61.5735086%" x2="67.5542629%" y2="-40.4380242%" id="linearGradient-18">
            <stop stop-color="#F7C9AA" offset="0%"></stop>
            <stop stop-color="#FF717A" offset="100%"></stop>
        </linearGradient>
        <linearGradient x1="166.482099%" y1="65.2387741%" x2="71.6253456%" y2="28.3713471%" id="linearGradient-19">
            <stop stop-color="#F7C9AA" offset="0%"></stop>
            <stop stop-color="#FF717A" offset="100%"></stop>
        </linearGradient>
        <linearGradient x1="50.7320714%" y1="107.878654%" x2="49.1492637%" y2="-34.4250838%" id="linearGradient-20">
            <stop stop-color="#F7C9AA" offset="0%"></stop>
            <stop stop-color="#FF717A" offset="100%"></stop>
        </linearGradient>
        <linearGradient x1="50%" y1="67.9686543%" x2="50%" y2="-20.7236439%" id="linearGradient-21">
            <stop stop-color="#FFFFFF" stop-opacity="0" offset="0%"></stop>
            <stop stop-color="#B6B8CC" offset="100%"></stop>
        </linearGradient>
        <linearGradient x1="61.6029641%" y1="46.8866321%" x2="-55.8567343%" y2="110.465538%" id="linearGradient-22">
            <stop stop-color="#F7C9AA" offset="0%"></stop>
            <stop stop-color="#FF717A" offset="100%"></stop>
        </linearGradient>
        <linearGradient x1="49.9271555%" y1="71.6863122%" x2="49.4597367%" y2="-42.5066153%" id="linearGradient-23">
            <stop stop-color="#F7C9AA" offset="0%"></stop>
            <stop stop-color="#FF717A" offset="100%"></stop>
        </linearGradient>
        <linearGradient x1="49.7890217%" y1="65.6254478%" x2="48.9767555%" y2="-70.396905%" id="linearGradient-24">
            <stop stop-color="#F7C9AA" offset="0%"></stop>
            <stop stop-color="#FF717A" offset="100%"></stop>
        </linearGradient>
        <linearGradient x1="31.6520164%" y1="79.2388145%" x2="68.2403421%" y2="27.8956591%" id="linearGradient-25">
            <stop stop-color="#F7C9AA" offset="0%"></stop>
            <stop stop-color="#FF717A" offset="100%"></stop>
        </linearGradient>
        <linearGradient x1="50.7206055%" y1="58.5781741%" x2="44.2278625%" y2="-31.2812784%" id="linearGradient-26">
            <stop stop-color="#F7C9AA" offset="0%"></stop>
            <stop stop-color="#FF717A" offset="100%"></stop>
        </linearGradient>
        <linearGradient x1="68.6510117%" y1="108.079636%" x2="40.4542387%" y2="62.8043821%" id="linearGradient-27">
            <stop stop-color="#F7C9AA" offset="0%"></stop>
            <stop stop-color="#FF717A" offset="100%"></stop>
        </linearGradient>
    </defs>
    <g id="Artboard" stroke="none" stroke-width="1" fill="none" fill-rule="evenodd">
        <g id="Asset-1" transform="translate(4.000000, 0.000000)" fill-rule="nonzero">
            <path d="M0,477.65075 L688.710778,477.65075 C688.710778,477.65075 315.826739,531.421555 0,477.65075 Z" id="Path" fill="url(#linearGradient-1)" opacity="0.5"></path>
            <g id="Group" opacity="0.2" transform="translate(462.482947, 0.000000)" fill="#B6B8CC">
                <path d="M230.013643,454.882674 L0.315143247,454.882674 L0.315143247,0 L230.013643,0 L230.013643,454.882674 Z M5.57435198,449.627558 L224.758527,449.627558 L224.758527,5.25511596 L5.56616644,5.25511596 L5.57435198,449.627558 Z" id="Shape"></path>
            </g>
            <g id="Group" opacity="0.2" transform="translate(472.305593, 11.050477)">
                <rect id="Rectangle" fill="#B6B8CC" x="0.384720327" y="0.0654843111" width="209.901774" height="53.9877217"></rect>
                <rect id="Rectangle" fill="#B6B8CC" x="0.384720327" y="69.478854" width="209.901774" height="6.18417462"></rect>
                <rect id="Rectangle" fill="#B6B8CC" x="0.384720327" y="58.6739427" width="209.901774" height="6.18417462"></rect>
                <rect id="Rectangle" fill="#B6CCC6" x="193.747613" y="44.4761255" width="1.68622101" height="28.3915416"></rect>
                <rect id="Rectangle" fill="#B6CCC6" x="15.2373806" y="44.4761255" width="1.68622101" height="28.3915416"></rect>
            </g>
            <g id="Group" opacity="0.2" transform="translate(465.347885, 254.979536)" fill="#B6CCC6">
                <rect id="Rectangle" x="0.0777626194" y="0.167803547" width="224.439291" height="5.25511596"></rect>
            </g>
            <g id="Group" opacity="0.2" transform="translate(574.624829, 257.435198)" fill="#B6CCC6">
                <rect id="Rectangle" x="0.392905866" y="0.339699864" width="5.25511596" height="194.103683"></rect>
            </g>
            <path d="M473.668488,259.100955 C473.668488,254.943447 473.386079,250.790739 472.825375,246.671214 C472.664369,245.478598 471.79153,244.505173 470.623465,244.215553 L458.873124,241.276944 C457.839355,241.016362 457.027803,240.216326 456.752473,239.186387 C456.477142,238.156449 456.781226,237.058173 457.547067,236.316508 L466.260573,227.889495 C467.125517,227.058687 467.400659,225.78656 466.956344,224.672578 C463.810962,216.970386 459.623168,209.736422 454.510232,203.173261 C453.769334,202.233525 452.53259,201.836925 451.383356,202.170532 L439.735334,205.493861 C438.709727,205.788273 437.605136,205.502778 436.850633,204.748275 C436.096131,203.993773 435.810636,202.889181 436.105048,201.863574 L439.428377,190.219645 C439.76316,189.070395 439.36635,187.832996 438.425648,187.092769 C431.859365,181.988788 424.625904,177.806793 416.92633,174.663029 C415.813362,174.215353 414.540017,174.489139 413.709413,175.354707 L405.286494,184.060027 C404.544251,184.825852 403.445349,185.129417 402.415246,184.853193 C401.385143,184.576969 400.585555,183.76432 400.326057,182.729877 L397.383356,170.979536 C397.097244,169.808637 396.122455,168.932951 394.927694,168.773533 C386.684809,167.649369 378.327469,167.649369 370.084584,168.773533 C368.898669,168.942882 367.934753,169.816077 367.649386,170.979536 L364.710778,182.729877 C364.455857,183.765985 363.659341,184.582501 362.629873,184.863033 C361.600404,185.143565 360.499762,184.844029 359.754434,184.080491 L351.323329,175.371078 C350.493431,174.5106 349.226368,174.235855 348.114598,174.675307 C340.405753,177.809641 333.166809,181.993795 326.603001,187.109141 C325.664496,187.852705 325.268343,189.089673 325.600273,190.240109 L328.927694,201.884038 C329.222106,202.909645 328.936611,204.014237 328.182109,204.768739 C327.427606,205.523242 326.323015,205.808737 325.297408,205.514325 L313.653479,202.18281 C312.505097,201.849457 311.269182,202.244173 310.526603,203.181446 C305.417614,209.742089 301.231365,216.971631 298.084584,224.668486 C297.636744,225.78217 297.912324,227.056321 298.780355,227.885402 L307.506139,236.324693 C308.274207,237.066152 308.579743,238.165834 308.304249,239.197237 C308.028755,240.22864 307.21557,241.029505 306.180082,241.289222 L294.417462,244.227831 C293.247797,244.516003 292.373057,245.489739 292.21146,246.683492 C291.087322,254.931861 291.087322,263.294605 292.21146,271.542974 C292.378662,272.729895 293.25279,273.694841 294.417462,273.978172 L306.180082,276.920873 C307.21562,277.179139 308.029296,277.979257 308.304924,279.01031 C308.580552,280.041362 308.274669,281.140769 307.506139,281.88131 L298.772169,290.308322 C297.904466,291.139291 297.629052,292.414298 298.076398,293.529332 C301.224114,301.224461 305.410307,308.452528 310.518417,315.012278 C311.259983,315.951052 312.496075,316.347442 313.645293,316.015007 L325.301501,312.687585 C326.326735,312.396062 327.429448,312.682547 328.183137,313.436236 C328.936825,314.189924 329.22331,315.292637 328.931787,316.317872 L325.604366,327.965894 C325.265509,329.118023 325.660758,330.360465 326.603001,331.105048 C333.170606,336.22137 340.413741,340.405557 348.126876,343.538881 C349.238261,343.982994 350.50799,343.70767 351.335607,342.843111 L359.754434,334.125512 C360.495552,333.356994 361.595589,333.051627 362.626807,333.32815 C363.658025,333.604673 364.457694,334.41945 364.71487,335.455662 L367.653479,347.206003 C367.940866,348.368257 368.903763,349.240528 370.088677,349.412005 C378.33175,350.533399 386.688714,350.533399 394.931787,349.412005 C396.124904,349.252084 397.098853,348.378776 397.387449,347.210095 L400.326057,335.459754 C400.584689,334.423592 401.385104,333.60931 402.416672,333.332921 C403.44824,333.056532 404.548551,333.361552 405.290587,334.129604 L413.713506,342.830832 C414.544315,343.695776 415.816442,343.970918 416.930423,343.526603 C424.627321,340.38344 431.859152,336.204346 438.425648,331.105048 C439.366075,330.362814 439.762644,329.124548 439.428377,327.974079 L436.105048,316.33015 C435.813525,315.304915 436.10001,314.202202 436.853698,313.448514 C437.607387,312.694826 438.710099,312.40834 439.735334,312.699864 L451.076398,315.941337 C452.372097,316.310296 453.75288,315.752251 454.428377,314.58663 L466.530696,293.668486 C467.208335,292.502119 467.00222,291.023834 466.031378,290.087312 L457.547067,281.901774 C456.778999,281.160315 456.473463,280.060632 456.748957,279.02923 C457.024451,277.997827 457.837636,277.196962 458.873124,276.937244 L470.623465,273.998636 C471.785931,273.712839 472.657691,272.748718 472.825375,271.563438 C473.38769,267.4331 473.668488,263.269395 473.668488,259.100955 L473.668488,259.100955 Z M439.25648,268.166439 C438.643047,272.084071 437.615461,275.925513 436.190996,279.626194 C434.022439,285.30411 430.962173,290.599821 427.125512,295.313779 C424.615586,298.388517 421.801887,301.202216 418.727149,303.712142 C408.491551,312.026013 395.705073,316.561332 382.518417,316.555258 C375.504019,316.553118 368.5487,315.273007 361.993179,312.777626 C356.318052,310.605842 351.024181,307.545842 346.309686,303.712142 C343.234948,301.202216 340.421249,298.388517 337.911323,295.313779 C334.079717,290.602357 331.019854,285.312871 328.845839,279.642565 C327.419931,275.942651 326.393636,272.100905 325.784447,268.18281 C324.824001,262.177312 324.824001,256.05734 325.784447,250.051842 C326.393636,246.133747 327.419931,242.292001 328.845839,238.592087 C331.01993,232.92307 334.079804,227.634944 337.911323,222.924966 C340.42017,219.849252 343.233973,217.03545 346.309686,214.526603 C351.023192,210.691468 356.317302,207.631329 361.993179,205.461119 C365.693093,204.035211 369.534838,203.008916 373.452933,202.399727 C383.409092,200.814523 393.606938,201.870154 403.027285,205.461119 C408.703613,207.630382 413.997868,210.690605 418.710778,214.526603 C421.786491,217.03545 424.600294,219.849252 427.109141,222.924966 C430.945773,227.637439 434.006057,232.931799 436.174625,238.608458 C439.768345,248.033814 440.825387,258.237301 439.240109,268.199181 L439.25648,268.166439 Z" id="Shape" fill="url(#linearGradient-2)"></path>
            <path d="M418.727306,96.1800819 C418.727306,93.8815745 418.571469,91.5857064 418.260573,89.308322 C418.162006,88.6521253 417.677086,88.1203289 417.032742,87.9618008 L410.537517,86.324693 C409.970783,86.1746632 409.527535,85.7330387 409.375427,85.166859 C409.223319,84.6006792 409.385573,83.9963826 409.800819,83.5825375 L414.618008,78.9249659 C415.095023,78.4642216 415.246939,77.7612064 415.002729,77.1446112 C413.264093,72.8917138 410.949111,68.897991 408.122783,65.2755798 C407.71197,64.7587536 407.030919,64.5392681 406.395634,64.7189632 L399.957708,66.5566166 C399.392031,66.7101025 398.787459,66.5494591 398.372581,66.1354251 C397.957702,65.7213912 397.795826,65.1171486 397.948158,64.5511596 L399.785812,58.1132333 C399.967321,57.4766923 399.74766,56.7934821 399.229195,56.3819918 C395.603959,53.5630957 391.610715,51.2525223 387.360164,49.5143247 C386.745533,49.2709348 386.044834,49.4210845 385.583902,49.8949523 L380.92633,54.7080491 C380.512485,55.1232943 379.908188,55.2855482 379.342009,55.1334403 C378.775829,54.9813323 378.334204,54.5380846 378.184175,53.9713506 L376.547067,47.4761255 C376.388539,46.8317821 375.856742,46.3468614 375.200546,46.2482947 C370.643235,45.6261689 366.022522,45.6261689 361.465211,46.2482947 C360.809015,46.3468614 360.277218,46.8317821 360.11869,47.4761255 L358.481583,53.9713506 C358.331553,54.5380846 357.889928,54.9813323 357.323748,55.1334403 C356.757569,55.2855482 356.153272,55.1232943 355.739427,54.7080491 L351.077763,49.8949523 C350.61851,49.4213654 349.919875,49.2696987 349.305593,49.5102319 C345.041741,51.2411074 341.037883,53.553621 337.407913,56.3819918 C336.889448,56.7934821 336.669787,57.4766923 336.851296,58.1132333 L338.68895,64.5511596 C338.840587,65.1162617 338.679111,65.7193315 338.265388,66.133055 C337.851664,66.5467785 337.248595,66.7082539 336.683492,66.5566166 L330.286494,64.6944065 C329.650785,64.5119755 328.96775,64.7299654 328.555252,65.2469304 C325.731178,68.8701331 323.417647,72.8637279 321.6794,77.1159618 C321.43601,77.7305925 321.586159,78.4312911 322.060027,78.8922237 L326.885402,83.5620737 C327.300686,83.9753421 327.463467,84.5790277 327.312246,85.1450517 C327.161024,85.7110757 326.718856,86.1531405 326.152797,86.3042292 L319.649386,87.941337 C319.005043,88.099865 318.520122,88.6316614 318.421555,89.2878581 C317.799443,93.8479111 317.799443,98.4713249 318.421555,103.031378 C318.520122,103.687575 319.005043,104.219371 319.649386,104.377899 L326.152797,106.015007 C326.718856,106.166096 327.161024,106.60816 327.312246,107.174184 C327.463467,107.740208 327.300686,108.343894 326.885402,108.757162 L322.060027,113.42292 C321.584442,113.884599 321.434169,114.58749 321.6794,115.203274 C323.417322,119.455668 325.730877,123.449306 328.555252,127.072306 C328.966743,127.59077 329.649953,127.810431 330.286494,127.628922 L336.72442,125.787176 C337.290409,125.634844 337.894652,125.796719 338.308686,126.211598 C338.72272,126.626477 338.883363,127.231049 338.729877,127.796726 L336.87176,134.242838 C336.692065,134.878122 336.91155,135.559173 337.428377,135.969986 C341.058677,138.796789 345.062505,141.107908 349.326057,142.837653 C349.940339,143.078187 350.638973,142.92652 351.098226,142.452933 L355.759891,137.639836 C356.173159,137.224553 356.776845,137.061772 357.342869,137.212993 C357.908893,137.364214 358.350958,137.806383 358.502046,138.372442 L360.139154,144.87176 C360.297682,145.516103 360.829479,146.001024 361.485675,146.099591 C366.043356,146.716249 370.663329,146.716249 375.22101,146.099591 C375.877206,146.001024 376.409003,145.516103 376.567531,144.87176 L378.204638,138.372442 C378.355727,137.806383 378.797792,137.364214 379.363816,137.212993 C379.92984,137.061772 380.533526,137.224553 380.946794,137.639836 L385.604366,142.452933 C386.065298,142.926801 386.765997,143.076951 387.380628,142.833561 C391.632109,141.09552 395.625552,138.783454 399.249659,135.961801 C399.772258,135.555006 399.993004,134.870046 399.806276,134.234652 L397.968622,127.796726 C397.814435,127.230162 397.975477,126.624414 398.390668,126.209222 C398.80586,125.79403 399.411608,125.632989 399.978172,125.787176 L406.248295,127.579809 C406.963423,127.778341 407.722643,127.470958 408.098226,126.830832 L414.789905,115.264666 C415.159269,114.618772 415.046623,113.805031 414.515689,113.283765 L409.821282,108.748977 C409.406037,108.335132 409.243783,107.730835 409.395891,107.164655 C409.547999,106.598476 409.991247,106.156851 410.557981,106.006821 L417.053206,104.369714 C417.697549,104.211185 418.18247,103.679389 418.281037,103.023192 C418.583797,100.754817 418.732841,98.468566 418.727306,96.1800819 L418.727306,96.1800819 Z M399.703956,101.189632 C399.362709,103.355038 398.794787,105.478574 398.00955,107.525239 C396.808515,110.663536 395.116178,113.590933 392.995907,116.197817 C391.609405,117.898759 390.054425,119.455109 388.354707,120.843111 C385.747662,122.962107 382.820251,124.65307 379.682128,125.85266 C374.476047,127.840712 368.838769,128.425046 363.335607,127.547067 C361.165172,127.210747 359.037049,126.642699 356.987722,125.85266 C353.849599,124.65307 350.922188,122.962107 348.315143,120.843111 C346.617355,119.452977 345.062579,117.896831 343.673943,116.197817 C341.556388,113.593575 339.86425,110.670666 338.6603,107.537517 C335.878882,100.22133 335.878882,92.1388333 338.6603,84.8226467 C339.858871,81.675663 341.551309,78.7398001 343.673943,76.1255116 C345.062579,74.4264982 346.617355,72.8703516 348.315143,71.4802183 C350.921157,69.3597249 353.848818,67.6686177 356.987722,66.4706685 C360.617239,65.0939747 364.467412,64.3907911 368.34925,64.3956095 C372.226798,64.3956095 376.071672,65.1045886 379.694407,66.4870396 C382.833311,67.6849888 385.760971,69.376096 388.366985,71.4965894 C390.06161,72.8800697 391.612427,74.4308867 392.995907,76.1255116 C398.687985,83.1350555 401.127333,92.2361014 399.703956,101.152797 L399.703956,101.189632 Z" id="Shape" fill="url(#linearGradient-3)"></path>
            <rect id="Rectangle" fill="#F6F6F6" x="186.720327" y="517.915416" width="391.051842" height="7.51023192"></rect>
            <path d="M232.190996,296.484311 L532.567531,296.484311 C544.656012,296.484311 554.455662,306.283961 554.455662,318.372442 L554.455662,517.915416 L210.302865,517.915416 L210.302865,318.372442 C210.302865,306.283961 220.102515,296.484311 232.190996,296.484311 Z" id="Path" fill="#231F20"></path>
            <rect id="Rectangle" fill="url(#linearGradient-4)" x="220.18281" y="307.272851" width="324.388813" height="191.488404"></rect>
            <rect id="Rectangle" fill="#B6B8CC" opacity="0.5" x="210.302865" y="509.611187" width="344.148704" height="8.3042292"></rect>
            <path d="M186.720327,517.915416 L578.038199,517.915416 L578.038199,517.915416 C578.038199,526.210989 571.313308,532.93588 563.017735,532.93588 L201.740791,532.93588 C193.445218,532.93588 186.720327,526.210989 186.720327,517.915416 L186.720327,517.915416 L186.720327,517.915416 Z" id="Path" fill="#F6F6F6"></path>
            <path d="M411.478854,517.915416 C411.478854,519.620689 410.801437,521.256119 409.595627,522.461929 C408.389816,523.66774 406.754387,524.345157 405.049113,524.345157 L359.443383,524.345157 C355.892336,524.345157 353.013643,521.466464 353.013643,517.915416 L411.478854,517.915416 Z" id="Path" fill="#B6B8CC"></path>
            <polygon id="Path" fill="#F6F6F6" points="316.510232 363.671214 372.495225 387.994543 372.495225 402.597544 316.215553 427.006821 316.518417 409.866303 353.73397 395.361528 316.510232 380.795362"></polygon>
            <polygon id="Path" fill="#F6F6F6" points="382.518417 462.032742 382.518417 446.173261 440.717599 446.173261 440.717599 462.032742"></polygon>
            <path d="M156.814461,442.465211 C154.469304,413.529332 206.746248,352.878581 206.746248,352.878581 C206.746248,352.878581 148.375171,372.560709 145.661664,439.751705 L156.814461,442.465211 Z" id="Path" fill="url(#linearGradient-5)"></path>
            <path d="M141.249659,446.869031 C127.673943,371.971351 156.859482,314.066849 156.859482,314.066849 C156.859482,314.066849 167.500682,359.54161 147.253752,437.594816 L141.249659,446.869031 Z" id="Path" fill="url(#linearGradient-6)"></path>
            <path d="M117,448.416098 C119.345157,419.476126 67.0682128,358.829468 67.0682128,358.829468 C67.0682128,358.829468 125.435198,378.511596 128.148704,445.702592 L117,448.416098 Z" id="Path" fill="url(#linearGradient-7)"></path>
            <path d="M128.635744,449.693042 C102.896317,397.109141 118.207367,300.920873 118.207367,300.920873 C118.207367,300.920873 148.944065,393.392906 141.429741,448.092769 L128.635744,449.693042 Z" id="Path" fill="url(#linearGradient-8)"></path>
            <polygon id="Path" fill="#F6F6F6" points="174.961801 535.215553 92.8485675 535.215553 107.156889 444.26603 133.899045 443.983629 161.684857 443.983629 174.703956 533.435198"></polygon>
            <rect id="Rectangle" fill="#F6F6F6" x="103.55116" y="437.075034" width="60.3110505" height="7.19918145" rx="3.59959072"></rect>
            <path d="M174.703956,533.435198 L92.8485675,535.215553 C161.672578,532.010914 155.46794,443.983629 155.46794,443.983629 L161.684857,443.983629 L174.703956,533.435198 Z" id="Path" fill="#B6B8CC" opacity="0.5"></path>
            <path d="M482.12824,230.85266 L499.219645,266.361528 L524.840382,294.040928 L531.888131,296.431105 L514.698499,296.431105 L517.502046,293.738063 C517.502046,293.738063 483.826739,278.594816 481.772169,250.080491 C480.744884,235.489768 482.12824,230.85266 482.12824,230.85266 Z" id="Path" fill="url(#linearGradient-9)"></path>
            <path d="M462.07367,231.081855 L444.982265,266.590723 L419.345157,294.270123 L412.297408,296.435198 L429.48704,296.488404 L426.687585,293.971351 C426.687585,293.971351 460.358799,278.828104 462.417462,250.309686 C463.452933,235.718963 462.07367,231.081855 462.07367,231.081855 Z" id="Path" fill="url(#linearGradient-10)"></path>
            <polygon id="Path" fill="url(#linearGradient-11)" points="451.878581 330.491132 438.65075 351.941337 448.809004 368.328786 432.855389 352.141883 445.133697 326.930423"></polygon>
            <path d="M438.65075,351.941337 L439.81719,355.33015 L434.001364,349.497954 L429.470668,359.930423 L430.530696,360.392906 L434.836289,354.151432 L436.13779,357.171896 C438.071833,361.645839 441.63872,365.21419 446.111869,367.150068 L448.829468,368.328786 L438.65075,351.941337 Z" id="Path" fill="#1D1D1B"></path>
            <polygon id="Path" fill="url(#linearGradient-12)" points="483.151432 335.357435 480.540246 360.421555 496.800819 370.780355 475.407913 363.114598 475.530696 335.075034"></polygon>
            <path d="M480.540246,360.421555 L483.061392,362.967258 L475.28513,360.237381 L475.731241,371.603001 L476.885402,371.557981 L478.055935,364.068213 L480.540246,366.22101 C484.216064,369.412234 488.969406,371.083514 493.833561,370.894952 L496.792633,370.780355 L480.540246,360.421555 Z" id="Path" fill="#1D1D1B"></path>
            <path d="M490.272851,341.607094 L470.365621,346.109141 L469.309686,304.526603 L451.542974,298.362892 L445.972715,296.427012 C443.414734,291.843111 443.332879,287.619372 445.657572,284.058663 C446.784948,282.409937 448.229078,281.00198 449.905866,279.91678 L456.671214,275.341064 L486.049113,288.949523 L490.272851,341.607094 Z" id="Path" fill="#B58959"></path>
            <polygon id="Path" fill="#8C6246" points="476.431105 288.716235 469.984993 331.133697 469.309686 304.534789 445.845839 284.062756"></polygon>
            <path d="M487.330204,248.34925 L482.345157,254.897681 L481.587995,287.668486 C481.587995,287.668486 471.523874,289.874488 461.652115,289.375171 C455.463847,289.068213 449.373806,287.697135 445.845839,284.05457 L458.799454,261.609823 L459.470668,236.488404 L461.92633,231.41337 L462.090041,231.077763 L481.972715,229.686221 L483.544338,232.723056 C486.041387,237.552726 487.33986,242.912258 487.330204,248.34925 L487.330204,248.34925 Z" id="Path" fill="#F6F6F6"></path>
            <path d="M466.575716,266.750341 L469.297408,277.248295 L461.664393,289.358799 C455.476126,289.051842 449.386085,287.680764 445.858117,284.038199 L458.799454,261.609823 L459.470668,236.488404 L461.92633,231.41337 L464.267394,245.525239 L468.884038,251.938608 L477.511596,251.938608 L468.884038,259.567531 L466.575716,266.750341 Z" id="Path" fill="#B6B8CC" opacity="0.5"></path>
            <path d="M434.652115,330.65075 L457.526603,341.607094 L476.443383,288.716235 L486.061392,288.929059 L486.061392,279.085948 C486.061392,275.120055 483.171896,270.708049 479.206003,270.708049 L466.027285,270.708049 L434.652115,330.65075 Z" id="Path" fill="#CA9E67"></path>
            <polygon id="Path" fill="url(#linearGradient-13)" points="471.613915 217.665757 468.855389 231.53206 477.478854 236.017735 477.478854 217.665757"></polygon>
            <path d="M488.603001,223.735334 L486.847203,222.630286 C488.261746,217.895358 485.663506,212.892299 480.976571,211.326052 C476.289637,209.759806 471.205523,212.19563 469.489197,216.829711 C467.772871,221.463792 470.043754,226.623689 474.620177,228.488316 C479.196601,230.352943 484.426932,228.249355 486.437926,223.735334 L488.603001,223.735334 Z" id="Path" fill="url(#linearGradient-14)"></path>
            <ellipse id="Oval" fill="#1D1D1B" cx="485.111869" cy="220.919509" rx="1" ry="1"></ellipse>
            <path d="M473.758527,209.373806 C468.789905,210.933151 466.800819,214.096862 466.190996,217.362892 L466.190996,217.362892 C466.190996,217.362892 464.038199,224.169168 465.049113,226.841746 L466.587995,227.42292 L466.833561,225.302865 C467.069318,226.139861 467.360549,226.96023 467.705321,227.758527 L480.65075,231.900409 L480.495225,223.530696 C480.463844,221.958905 481.376255,220.520972 482.811733,219.879945 L483.712142,219.470668 L483.712142,218.218281 L484.653479,219.241473 L485.77899,219.004093 L485.77899,217.0191 L486.789905,218.766712 L488.017735,218.566166 C488.210095,217.248295 484.174625,206.107776 473.758527,209.373806 Z" id="Path" fill="#1D1D1B"></path>
            <path d="M146.181446,398.836289 L151.653479,422.271487 L138.933151,453.618008 L143.578445,460.984993 L138.14734,464.668486 L134.345157,458.897681 L143.758527,420.91678 L126.282401,396.180082 L129.196453,394.133697 C131.988826,392.174338 135.51116,391.566528 138.798704,392.476742 C142.086248,393.386956 144.794413,395.719789 146.181446,398.836289 L146.181446,398.836289 Z" id="Path" fill="url(#linearGradient-15)"></path>
            <polygon id="Path" fill="url(#linearGradient-16)" points="102.859482 512.381992 96.8676671 532.74352 81.781719 538.518417 100.821282 535.804911 109.375171 513.290587"></polygon>
            <path d="M96.8635744,532.74352 L94.3383356,534.515689 L101.34925,533.365621 L99.2578445,542.950887 L98.2837653,542.738063 L98.4188267,536.189632 L95.9836289,537.646658 C92.3819918,539.803547 86.8444748,542.967258 83.7053206,540.184175 L81.7899045,538.489768 L96.8635744,532.74352 Z" id="Path" fill="#1D1D1B"></path>
            <polygon id="Path" fill="url(#linearGradient-17)" points="169.792633 507.879945 182.942701 525.188267 175.440655 539.590723 187.93588 524.873124 175.28513 504.257844"></polygon>
            <path d="M182.946794,525.188267 L182.230559,528.196453 L186.732606,522.703956 L191.496589,531.278308 L190.624829,531.765348 L186.409277,526.763984 L185.54161,529.469304 C184.260573,533.46794 182.177353,539.050477 177.99045,539.386085 L175.444748,539.590723 L182.946794,525.188267 Z" id="Path" fill="#1D1D1B"></path>
            <polygon id="Path" fill="#B58959" points="135.061392 450.503411 106.497954 525.462483 93.53206 520.538881 118.882674 448.71487"></polygon>
            <polygon id="Path" fill="#8C6246" points="118.886767 448.71487 123.159618 481.735334 135.061392 450.503411"></polygon>
            <polygon id="Path" fill="#CA9E67" points="180 508.52251 170.725784 522.699864 118.882674 448.71487 137.001364 450.720327"></polygon>
            <path d="M118.886767,448.71487 L137.001364,450.720327 C140.361528,450.556617 145.633015,441.626194 144.409277,438.495225 C142.59618,433.870396 137.860846,424.276944 141.867667,414.855389 C146.124147,404.877217 145.984993,398.693042 144.233288,394.858117 C141.515689,388.878581 134.877217,388.612551 134.877217,388.612551 L128.983629,390.941337 L121.399727,407.259209 C120.339115,409.545754 120.86741,412.254917 122.709413,413.975443 L124.976808,416.095498 L119.918145,443.24693 L118.886767,448.71487 Z" id="Path" fill="#F6F6F6"></path>
            <path d="M118.886767,448.71487 L137.001364,450.720327 C140.361528,450.556617 145.633015,441.626194 144.409277,438.495225 C142.59618,433.870396 137.860846,424.276944 141.867667,414.855389 C146.124147,404.877217 145.984993,398.693042 144.233288,394.858117 L135.061392,393.888131 C135.061392,393.888131 135.699864,428.938608 132.135061,433.923602 C129.785812,437.197817 123.748977,441.020464 119.914052,443.230559 L118.886767,448.71487 Z" id="Path" fill="#B6CCC6" opacity="0.5"></path>
            <path d="M143.099591,407.017735 L135.036835,429.695771 L107.398363,449.20191 L107.398363,451.346521 C107.372718,454.996427 104.449897,457.964577 100.800819,458.046385 L100.800819,458.046385 L100.723056,451.133697 L129.167804,424.264666 L131.353342,393.900409 L131.353342,393.900409 C134.756917,393.764435 138.043485,395.155053 140.315822,397.692629 C142.58816,400.230204 143.608976,403.649749 143.099591,407.017735 L143.099591,407.017735 Z" id="Path" fill="url(#linearGradient-18)"></path>
            <polygon id="Path" fill="url(#linearGradient-19)" points="127.027285 382.387449 129.634379 390.998636 135.061392 390.793997 133.510232 380.017735 126.282401 379.514325"></polygon>
            <path d="M122.034106,379.514325 C121.981092,380.129954 122.025289,380.75009 122.165075,381.351978 L125.132333,381.085948 C125.132333,381.085948 124.931787,382.346521 122.676671,382.534789 C124.45772,386.735379 129.048218,388.996177 133.463805,387.847399 C137.879391,386.698621 140.786081,382.487322 140.294185,377.95134 C139.802289,373.415358 136.060413,369.92505 131.501216,369.749526 C126.942018,369.574001 122.942868,372.766287 122.103683,377.251023 L120.437926,379.514325 L122.034106,379.514325 Z" id="Path" fill="url(#linearGradient-20)"></path>
            <ellipse id="Oval" fill="#1D1D1B" cx="123.929059" cy="376.964529" rx="1" ry="1"></ellipse>
            <path d="M125.402456,367.759891 C125.545843,367.600246 125.701874,367.452427 125.869031,367.317872 C129.253752,364.661664 135.028649,364.223738 140.603001,367.956344 C148.653479,373.326057 140.918145,379.960437 154.109141,399.53206 C168.065484,420.233288 145.780355,424.813097 140.754434,419.758527 C134.144611,413.111869 141.937244,405.360164 130.301501,403.223738 C118.665757,401.087312 132.298772,388.858117 130.645293,381.91678 C130.120186,379.550967 129.054115,377.338974 127.530696,375.454297 L124.829468,374.042292 L124.751705,372.31105 L123.933151,374.042292 L121.964529,374.042292 C121.86221,371.508868 124.350614,368.791269 125.402456,367.759891 Z" id="Path" fill="#1D1D1B"></path>
            <polygon id="Path" fill="#B58959" points="130.78854 450.032742 177.07367 513 175.440655 515.312415 127.657572 449.684857"></polygon>
            <path d="M220.446794,181.01296 L220.446794,181.01296 L220.446794,278.936562 L122.527285,278.936562 L122.527285,278.936562 C122.527285,224.856449 166.36668,181.015221 220.446794,181.01296 L220.446794,181.01296 Z" id="Path" fill="#B6B8CC" opacity="0.5" transform="translate(171.487040, 229.974761) rotate(-90.000000) translate(-171.487040, -229.974761) "></path>
            <polygon id="Rectangle" fill="#B6B8CC" opacity="0.5" transform="translate(123.302865, 87.595498) rotate(-90.000000) translate(-123.302865, -87.595498) " points="84.7469304 63.2517053 161.858799 63.2517053 161.858799 111.939291 84.7469304 111.939291"></polygon>
            <path d="M218.879263,88.7271487 C240.173118,88.7271487 257.435198,105.989229 257.435198,127.283083 C257.435198,148.576938 240.173118,165.839018 218.879263,165.839018 C197.585409,165.839018 180.323329,148.576938 180.323329,127.283083 C180.323329,105.989229 197.585409,88.7271487 218.879263,88.7271487 Z" id="Rectangle" fill="#B6B8CC" opacity="0.5" transform="translate(218.879263, 127.283083) rotate(-90.000000) translate(-218.879263, -127.283083) "></path>
            <polygon id="Rectangle" fill="#B6B8CC" opacity="0.5" transform="translate(124.416098, 153.583220) rotate(-90.000000) translate(-124.416098, -153.583220) " points="115.119372 129.239427 133.712824 129.239427 133.712824 177.927012 115.119372 177.927012"></polygon>
            <polygon id="Path" fill="url(#linearGradient-21)" points="220.44884 599.787176 595.93588 599.787176 566.656207 532.93588 198.102319 532.93588"></polygon>
            <polygon id="Path" fill="url(#linearGradient-22)" points="258.392906 140.934516 293.987722 126.396999 316.125512 97.8540246 318.540246 88.4774898 318.540246 97.8540246 321.356071 104.476126 315.687585 105.41337 298.154161 132.319236 258.401091 148.972715"></polygon>
            <polygon id="Path" fill="url(#linearGradient-23)" points="253.268759 296.484311 239.627558 296.484311 236.095498 288.785812 239.787176 284.934516 244.682128 262.457026 248.132333 271.768076 242.197817 287.500682 244.923602 292.633015"></polygon>
            <polygon id="Path" fill="url(#linearGradient-24)" points="277.506139 296.484311 256.47749 296.484311 258.405184 292.796726 258.405184 271.927694 264.826739 267.920873 263.062756 291.032742 268.678035 293.115962"></polygon>
            <polygon id="Path" fill="#B58959" points="252.306958 195.626194 236.095498 267.757162 249.257844 276.744884 267.699864 197.451569"></polygon>
            <polygon id="Path" fill="#8C6246" points="251.897681 197.443383 252.941337 260.897681 264.720327 200.705321"></polygon>
            <polygon id="Path" fill="#CA9E67" points="255.360164 195.626194 253.911323 277.465211 267.699864 271.366985 267.699864 197.451569"></polygon>
            <polygon id="Path" fill="#B58959" points="263.050477 196.899045 263.050477 273.425648 261.507503 274.105048 261.507503 196.899045"></polygon>
            <path d="M266.967258,135.814461 C266.967258,135.814461 266.713506,137.578445 266.251023,141.270123 C265.78854,144.961801 259.813097,135.814461 259.813097,135.814461 L263.107776,124.849932 L266.967258,135.814461 Z" id="Path" fill="url(#linearGradient-25)"></path>
            <path d="M259.813097,135.814461 C257.623468,135.892887 255.49495,136.557166 253.649386,137.738063 C250.809004,139.665757 245.08322,195.683492 245.566166,195.683492 C245.856753,195.683492 253.481583,197.889495 259.387449,199.612551 C263.617475,200.855602 268.187968,199.651513 271.25648,196.485675 L271.25648,196.485675 L266.967258,135.814461 C266.967258,135.814461 266.51296,143.357435 259.813097,135.814461 Z" id="Path" fill="#F6F6F6"></path>
            <polygon id="Path" fill="#1D1D1B" points="244.923602 292.633015 253.268759 296.484311 239.627558 296.484311 236.095498 288.785812 239.787176 284.934516 242.197817 287.500682"></polygon>
            <polygon id="Path" fill="#1D1D1B" points="277.506139 296.484311 256.47749 296.484311 258.405184 292.796726 258.405184 291.834925 263.062756 291.032742 268.678035 293.115962"></polygon>
            <path d="M259.813097,140.300136 L258.392906,166.870396 L269.341064,201.630286 L265.465211,212.005457 L260.80764,212.005457 L263.869031,208.489768 L264.720327,200.713506 L250.358799,167.971351 L252.974079,142.497954 C253.111521,141.124919 253.972295,139.930034 255.231126,139.364827 C256.489956,138.799621 257.954873,138.950287 259.072306,139.759891 L259.813097,140.300136 Z" id="Path" fill="url(#linearGradient-26)"></path>
            <path d="M254.353342,124.665757 C254.726403,124.413484 255.142562,124.231761 255.581173,124.129604 C255.428582,121.687961 256.549418,119.341017 258.544338,117.924966 C261.859482,115.661664 266.598909,116.828104 269.12824,120.53206 C269.671674,121.315057 270.086201,122.180036 270.356071,123.094134 C270.560709,123.912688 272.566166,124.424284 272.566166,124.424284 C272.084147,124.966776 271.414215,125.30613 270.691678,125.373806 C270.900643,127.7631 269.752957,130.067956 267.720327,131.341064 C265.473397,132.875853 262.571623,132.830832 260.144611,131.488404 C259.94052,131.727315 259.706698,131.939131 259.44884,132.11869 C257.607094,133.375171 254.975443,132.72442 253.571623,130.665757 C252.167804,128.607094 252.523874,125.922237 254.353342,124.665757 Z" id="Path" fill="url(#linearGradient-27)"></path>
            <path d="M276.028649,103.780355 C285.79809,105.028649 289.485675,115.387449 260.676671,124.051842 L261.392906,127.78854 C261.392906,127.78854 257.472033,123.151432 256.109141,123.773533 C254.746248,124.395634 253.068213,124.731241 252.802183,128.578445 L252.802183,128.578445 C250.813364,127.543753 249.991,125.127158 250.93588,123.094134 C254.361528,115.71487 267.765348,102.728513 276.028649,103.780355 Z" id="Path" fill="#1D1D1B"></path>
            <ellipse id="Oval" fill="#1D1D1B" transform="translate(269.152290, 123.766872) rotate(-22.440000) translate(-269.152290, -123.766872) " cx="269.15229" cy="123.766872" rx="1" ry="1"></ellipse>
        </g>
    </g>
</svg>