<?xml version="1.0" encoding="UTF-8"?>
<svg width="211px" height="46px" viewBox="0 0 211 46" version="1.1" xmlns="http://www.w3.org/2000/svg" xmlns:xlink="http://www.w3.org/1999/xlink">
    <!-- Generator: Sketch 55.2 (78181) - https://sketchapp.com -->
    <title>microsoft</title>
    <desc>Created with Sketch.</desc>
    <g id="makers" stroke="none" stroke-width="1" fill="none" fill-rule="evenodd">
        <g id="microsoft" fill-rule="nonzero">
            <path d="M211,20.8950989 L211,17.2392312 L206.405631,17.2392312 L206.405631,11.5557443 L206.250973,11.6028001 L201.935803,12.9074904 L201.850741,12.9330292 L201.850741,17.2394322 L195.039875,17.2394322 L195.039875,14.8403947 C195.039875,13.723324 195.292619,12.8684784 195.790782,12.2983802 C196.285485,11.7351192 196.993046,11.448763 197.895559,11.448763 C198.54431,11.448763 199.216056,11.5997837 199.892075,11.8976022 L200.061589,11.9724087 L200.061589,8.12228527 L199.981818,8.0933279 C199.351178,7.86931048 198.493435,7.7564974 197.430159,7.7564974 C196.090127,7.7564974 194.8726,8.04466343 193.810748,8.61576709 C192.748287,9.18767511 191.912521,10.004112 191.327058,11.0421532 C190.74363,12.0789879 190.447541,13.2764957 190.447541,14.6016975 L190.447541,17.2392312 L187.248556,17.2392312 L187.248556,20.8950989 L190.447541,20.8950989 L190.447541,36.2965981 L195.039875,36.2965981 L195.039875,20.8950989 L201.850741,20.8950989 L201.850741,30.6824883 C201.850741,34.7133942 203.774812,36.7560952 207.569435,36.7560952 C208.192952,36.7560952 208.849232,36.6839029 209.51935,36.5425346 C210.201475,36.3973456 210.66606,36.2523577 210.939561,36.0975162 L211,36.0621238 L211,32.3724725 L210.813189,32.4945358 C210.563904,32.6586276 210.25357,32.7927565 209.889716,32.8924986 C209.524234,32.9940504 209.218988,33.0449269 208.982523,33.0449269 C208.093645,33.0449269 207.43594,32.8082407 207.027927,32.341102 C206.615234,31.8697404 206.405835,31.0454609 206.405835,29.8923946 L206.405835,20.8950989 L211,20.8950989 Z M176.993084,33.0455302 C175.326234,33.0455302 174.012045,32.4993621 173.085927,31.4235154 C172.154111,30.3422392 171.681996,28.8006615 171.681996,26.8420173 C171.681996,24.8212354 172.154111,23.2396403 173.086334,22.1392603 C174.013063,21.0461196 175.314634,20.4913045 176.95564,20.4913045 C178.54801,20.4913045 179.815598,21.0211841 180.723605,22.0670679 C181.636088,23.1183813 182.099249,24.6873076 182.099249,26.7316174 C182.099249,28.8010637 181.663764,30.3907026 180.805004,31.4540815 C179.952145,32.5094167 178.669702,33.0455302 176.993084,33.0455302 L176.993084,33.0455302 Z M177.197192,16.7801362 C174.017133,16.7801362 171.491319,17.7009403 169.690363,19.5170097 C167.890629,21.3332802 166.978145,23.8467395 166.978145,26.9882118 C166.978145,29.9720273 167.868855,32.3720703 169.625855,34.1205725 C171.382854,35.869678 173.773953,36.755693 176.7322,36.755693 C179.814784,36.755693 182.290334,35.822019 184.090475,33.980813 C185.890412,32.1416179 186.802286,29.6518875 186.802286,26.5838141 C186.802286,23.5533451 185.946578,21.1354048 184.258157,19.398566 C182.568922,17.6609228 180.192882,16.7801362 177.197192,16.7801362 L177.197192,16.7801362 Z M159.57388,16.7801362 C157.410699,16.7801362 155.621343,17.3269076 154.254449,18.4049663 C152.879211,19.48946 152.18162,20.9117896 152.18162,22.6329432 C152.18162,23.5276052 152.332209,24.3223241 152.628501,24.9963873 C152.926626,25.6726625 153.387955,26.2680984 154.00089,26.7678141 C154.609145,27.2635079 155.548084,27.7827296 156.792269,28.3110005 C157.838247,28.7363118 158.618254,29.0960669 159.113771,29.3796078 C159.598096,29.6575181 159.941804,29.9368361 160.135941,30.2089147 C160.324583,30.4751616 160.420227,30.8395418 160.420227,31.2891854 C160.420227,32.5695435 159.44995,33.1925291 157.453433,33.1925291 C156.712905,33.1925291 155.868186,33.0396985 154.942881,32.7384615 C154.02415,32.4417788 153.157028,32.0073052 152.371891,31.4502607 L152.181213,31.3151264 L152.181213,35.6842704 L152.251217,35.7164453 C152.900985,36.0128561 153.720267,36.2628145 154.685864,36.4594833 C155.649629,36.6563532 156.52528,36.7564974 157.285955,36.7564974 C159.633301,36.7564974 161.523592,36.2071118 162.902899,35.1226181 C164.290958,34.030684 164.994449,32.5747719 164.994449,30.7940948 C164.994449,29.5095138 164.61574,28.4079272 163.86931,27.5194991 C163.127968,26.6383103 161.841252,25.8293138 160.046605,25.1142277 C158.61683,24.5471459 157.700886,24.0763876 157.322991,23.7150237 C156.95873,23.3659266 156.773751,22.8722437 156.773751,22.247046 C156.773751,21.6928342 157.002075,21.2488212 157.47073,20.8892672 C157.943049,20.5279034 158.60055,20.3441045 159.425123,20.3441045 C160.190274,20.3441045 160.97313,20.4635537 161.751713,20.6976257 C162.529685,20.9316978 163.21303,21.2452015 163.783434,21.6286856 L163.971059,21.7553741 L163.971059,17.6108507 L163.899021,17.5802846 C163.372776,17.3572726 162.678848,17.1664355 161.835961,17.0115941 C160.99694,16.857758 160.235858,16.7801362 159.57388,16.7801362 L159.57388,16.7801362 Z M140.209644,33.0455302 C138.543201,33.0455302 137.228606,32.4993621 136.302691,31.4235154 C135.370671,30.3422392 134.89937,28.8010637 134.89937,26.8420173 C134.89937,24.8212354 135.371282,23.2396403 136.303708,22.1392603 C137.229623,21.0461196 138.530991,20.4913045 140.172811,20.4913045 C141.764571,20.4913045 143.032158,21.0211841 143.940368,22.0670679 C144.853056,23.1183813 145.316013,24.6873076 145.316013,26.7316174 C145.316013,28.8010637 144.880325,30.3907026 144.021564,31.4540815 C143.168705,32.5094167 141.886873,33.0455302 140.209644,33.0455302 L140.209644,33.0455302 Z M140.414363,16.7801362 C137.23349,16.7801362 134.707472,17.7009403 132.907534,19.5170097 C131.1078,21.3332802 130.194706,23.8467395 130.194706,26.9882118 C130.194706,29.9732339 131.086026,32.3720703 132.843026,34.1205725 C134.600025,35.869678 136.99092,36.755693 139.949167,36.755693 C143.031344,36.755693 145.507505,35.822019 147.307646,33.980813 C149.107176,32.1416179 150.019457,29.6518875 150.019457,26.5838141 C150.019457,23.5533451 149.163545,21.1354048 147.474717,19.398566 C145.785076,17.6609228 143.409443,16.7801362 140.414363,16.7801362 L140.414363,16.7801362 Z M123.223687,20.5395668 L123.223687,17.2392312 L118.687315,17.2392312 L118.687315,36.2961959 L123.223687,36.2961959 L123.223687,26.5478185 C123.223687,24.8902103 123.604024,23.5284096 124.354524,22.4998197 C125.095459,21.4834965 126.08283,20.9684978 127.288351,20.9684978 C127.696974,20.9684978 128.155658,21.0350595 128.652396,21.1667753 C129.144047,21.2976868 129.500168,21.4398594 129.710178,21.5894725 L129.900855,21.7260145 L129.900855,17.2066541 L129.827392,17.1754847 C129.404931,16.9981208 128.807258,16.9086345 128.051061,16.9086345 C126.911066,16.9086345 125.890932,17.2706016 125.017113,17.9832746 C124.25013,18.6096788 123.695802,19.4685463 123.271916,20.5395668 L123.223687,20.5395668 Z M110.563481,16.7801362 C108.48231,16.7801362 106.626003,17.2211328 105.047064,18.0904571 C103.464869,18.9617924 102.241237,20.2057527 101.408728,21.7875489 C100.579882,23.3655244 100.159048,25.2087413 100.159048,27.2643123 C100.159048,29.0648975 100.567061,30.7172774 101.373523,32.1735917 C102.180391,33.6323191 103.322421,34.7735209 104.768069,35.5650224 C106.211682,36.3555183 107.88016,36.7562963 109.727512,36.7562963 C111.883368,36.7562963 113.724005,36.3303817 115.199771,35.4904169 L115.259395,35.4566333 L115.259395,31.3497143 L115.068718,31.4872618 C114.400228,31.968477 113.653188,32.3525643 112.849371,32.629268 C112.04759,32.9057707 111.316626,33.0455302 110.675609,33.0455302 C108.895614,33.0455302 107.466652,32.4951391 106.429424,31.4100422 C105.389958,30.3235376 104.862899,28.7978462 104.862899,26.8780129 C104.862899,24.9461141 105.412546,23.3812096 106.495765,22.2265346 C107.575727,21.0752781 109.007334,20.4913045 110.750496,20.4913045 C112.241524,20.4913045 113.694498,20.9902158 115.069125,21.9755707 L115.259395,22.1121127 L115.259395,17.784796 L115.197939,17.7506102 C114.680648,17.4644551 113.975121,17.228171 113.099267,17.0489973 C112.227075,16.8702258 111.374013,16.7801362 110.563481,16.7801362 L110.563481,16.7801362 Z M97.0347472,17.2394322 L92.4983754,17.2394322 L92.4983754,36.2961959 L97.0347472,36.2961959 L97.0347472,17.2394322 Z M94.8129588,9.12111338 C94.0663255,9.12111338 93.4151327,9.37227833 92.8801371,9.8699831 C92.3429031,10.3690955 92.0704196,10.9975106 92.0704196,11.739141 C92.0704196,12.469108 92.3396471,13.0860608 92.8717937,13.5719011 C93.4004809,14.0563338 94.0537087,14.3018681 94.8131623,14.3018681 C95.5724124,14.3018681 96.2280822,14.0563338 96.7630777,13.5727055 C97.3015328,13.0860608 97.5746268,12.4693091 97.5746268,11.739141 C97.5746268,11.0234516 97.3088587,10.4014715 96.785259,9.89009239 C96.2620663,9.37971877 95.5982566,9.12111338 94.8129588,9.12111338 L94.8129588,9.12111338 Z M83.4944139,15.8333911 L83.4944139,36.2961959 L88.1239877,36.2961959 L88.1239877,9.7044837 L81.716454,9.7044837 L73.572067,29.4560231 L65.6684178,9.7044837 L59,9.7044837 L59,36.2961959 L63.3505784,36.2961959 L63.3505784,15.8313802 L63.4999458,15.8313802 L71.8459991,36.2961959 L75.1292318,36.2961959 L83.3450465,15.8333911 L83.4944139,15.8333911 L83.4944139,15.8333911 Z" id="Shape" fill="#706D6E"></path>
            <polygon id="Path" fill="#F1511B" points="21 21.7564974 0 21.7564974 0 0.756497401 21 0.756497401"></polygon>
            <polygon id="Path" fill="#80CC28" points="45 21.7564974 24 21.7564974 24 0.756497401 45 0.756497401"></polygon>
            <polygon id="Path" fill="#00ADEF" points="21 45.7564974 0 45.7564974 0 24.7564974 21 24.7564974"></polygon>
            <polygon id="Path" fill="#FBBC09" points="45 45.7564974 24 45.7564974 24 24.7564974 45 24.7564974"></polygon>
        </g>
    </g>
</svg>